<svg xmlns="http://www.w3.org/2000/svg" xmlns:xlink="http://www.w3.org/1999/xlink" width="1920" zoomAndPan="magnify" viewBox="0 0 1440 809.999993" height="1080" preserveAspectRatio="xMidYMid meet" version="1.0"><defs><g/><clipPath id="ce5827f105"><path d="M 48 235 L 233 235 L 233 276.261719 L 48 276.261719 Z M 48 235 " clip-rule="nonzero"/></clipPath><clipPath id="871048acdf"><path d="M 1.191406 124 L 280 124 L 280 193 L 1.191406 193 Z M 1.191406 124 " clip-rule="nonzero"/></clipPath><clipPath id="efb5f40f0b"><path d="M 101 62 L 133 62 L 133 91 L 101 91 Z M 101 62 " clip-rule="nonzero"/></clipPath><clipPath id="62261fa6c8"><path d="M 82.960938 18.644531 L 184.234375 87.753906 L 128.082031 170.039062 L 26.808594 100.929688 Z M 82.960938 18.644531 " clip-rule="nonzero"/></clipPath><clipPath id="df3271b481"><path d="M 82.960938 18.644531 L 184.234375 87.753906 L 128.082031 170.039062 L 26.808594 100.929688 Z M 82.960938 18.644531 " clip-rule="nonzero"/></clipPath><clipPath id="e48c41fbcd"><path d="M 100 61 L 134 61 L 134 92 L 100 92 Z M 100 61 " clip-rule="nonzero"/></clipPath><clipPath id="85f7b41524"><path d="M 82.960938 18.644531 L 184.234375 87.753906 L 128.082031 170.039062 L 26.808594 100.929688 Z M 82.960938 18.644531 " clip-rule="nonzero"/></clipPath><clipPath id="4a9ab1af10"><path d="M 82.960938 18.644531 L 184.234375 87.753906 L 128.082031 170.039062 L 26.808594 100.929688 Z M 82.960938 18.644531 " clip-rule="nonzero"/></clipPath><clipPath id="67770a8af6"><path d="M 75 72 L 128 72 L 128 128 L 75 128 Z M 75 72 " clip-rule="nonzero"/></clipPath><clipPath id="d9160f43bf"><path d="M 82.960938 18.644531 L 184.234375 87.753906 L 128.082031 170.039062 L 26.808594 100.929688 Z M 82.960938 18.644531 " clip-rule="nonzero"/></clipPath><clipPath id="5db80324ed"><path d="M 82.960938 18.644531 L 184.234375 87.753906 L 128.082031 170.039062 L 26.808594 100.929688 Z M 82.960938 18.644531 " clip-rule="nonzero"/></clipPath><clipPath id="79792a088c"><path d="M 74 72 L 129 72 L 129 134 L 74 134 Z M 74 72 " clip-rule="nonzero"/></clipPath><clipPath id="3915ce81f9"><path d="M 82.960938 18.644531 L 184.234375 87.753906 L 128.082031 170.039062 L 26.808594 100.929688 Z M 82.960938 18.644531 " clip-rule="nonzero"/></clipPath><clipPath id="48e8b25749"><path d="M 82.960938 18.644531 L 184.234375 87.753906 L 128.082031 170.039062 L 26.808594 100.929688 Z M 82.960938 18.644531 " clip-rule="nonzero"/></clipPath><clipPath id="f0c2498dc6"><path d="M 96.402344 62.699219 L 138.164062 91.199219 L 100.222656 146.796875 L 58.460938 118.296875 Z M 96.402344 62.699219 " clip-rule="nonzero"/></clipPath><clipPath id="bdb2ac6e33"><path d="M 76 93 L 117 93 L 117 125 L 76 125 Z M 76 93 " clip-rule="nonzero"/></clipPath><clipPath id="06765f9e1c"><path d="M 82.960938 18.644531 L 184.234375 87.753906 L 128.082031 170.039062 L 26.808594 100.929688 Z M 82.960938 18.644531 " clip-rule="nonzero"/></clipPath><clipPath id="bfa03bddad"><path d="M 82.960938 18.644531 L 184.234375 87.753906 L 128.082031 170.039062 L 26.808594 100.929688 Z M 82.960938 18.644531 " clip-rule="nonzero"/></clipPath><clipPath id="20e9811036"><path d="M 81 76 L 127 76 L 127 112 L 81 112 Z M 81 76 " clip-rule="nonzero"/></clipPath><clipPath id="54246f341e"><path d="M 82.960938 18.644531 L 184.234375 87.753906 L 128.082031 170.039062 L 26.808594 100.929688 Z M 82.960938 18.644531 " clip-rule="nonzero"/></clipPath><clipPath id="ceacdb1eee"><path d="M 82.960938 18.644531 L 184.234375 87.753906 L 128.082031 170.039062 L 26.808594 100.929688 Z M 82.960938 18.644531 " clip-rule="nonzero"/></clipPath><clipPath id="387c03ea0f"><path d="M 107 42 L 122 42 L 122 65 L 107 65 Z M 107 42 " clip-rule="nonzero"/></clipPath><clipPath id="702617ec6d"><path d="M 82.960938 18.644531 L 184.234375 87.753906 L 128.082031 170.039062 L 26.808594 100.929688 Z M 82.960938 18.644531 " clip-rule="nonzero"/></clipPath><clipPath id="8a2adc084f"><path d="M 82.960938 18.644531 L 184.234375 87.753906 L 128.082031 170.039062 L 26.808594 100.929688 Z M 82.960938 18.644531 " clip-rule="nonzero"/></clipPath><clipPath id="6a8f46ae4e"><path d="M 106 40 L 116 40 L 116 49 L 106 49 Z M 106 40 " clip-rule="nonzero"/></clipPath><clipPath id="d8d8fa2012"><path d="M 82.960938 18.644531 L 184.234375 87.753906 L 128.082031 170.039062 L 26.808594 100.929688 Z M 82.960938 18.644531 " clip-rule="nonzero"/></clipPath><clipPath id="c7f5e4e546"><path d="M 82.960938 18.644531 L 184.234375 87.753906 L 128.082031 170.039062 L 26.808594 100.929688 Z M 82.960938 18.644531 " clip-rule="nonzero"/></clipPath><clipPath id="bcbe85ceb1"><path d="M 129 62 L 153 62 L 153 75 L 129 75 Z M 129 62 " clip-rule="nonzero"/></clipPath><clipPath id="dc712d1096"><path d="M 82.960938 18.644531 L 184.234375 87.753906 L 128.082031 170.039062 L 26.808594 100.929688 Z M 82.960938 18.644531 " clip-rule="nonzero"/></clipPath><clipPath id="4b7197b712"><path d="M 82.960938 18.644531 L 184.234375 87.753906 L 128.082031 170.039062 L 26.808594 100.929688 Z M 82.960938 18.644531 " clip-rule="nonzero"/></clipPath><clipPath id="ea66319ec2"><path d="M 146 66 L 154 66 L 154 76 L 146 76 Z M 146 66 " clip-rule="nonzero"/></clipPath><clipPath id="bb84b621ab"><path d="M 82.960938 18.644531 L 184.234375 87.753906 L 128.082031 170.039062 L 26.808594 100.929688 Z M 82.960938 18.644531 " clip-rule="nonzero"/></clipPath><clipPath id="ffa8f66270"><path d="M 82.960938 18.644531 L 184.234375 87.753906 L 128.082031 170.039062 L 26.808594 100.929688 Z M 82.960938 18.644531 " clip-rule="nonzero"/></clipPath><clipPath id="7dbe49edf9"><path d="M 111 98 L 143 98 L 143 132 L 111 132 Z M 111 98 " clip-rule="nonzero"/></clipPath><clipPath id="33ac41c4eb"><path d="M 82.960938 18.644531 L 184.234375 87.753906 L 128.082031 170.039062 L 26.808594 100.929688 Z M 82.960938 18.644531 " clip-rule="nonzero"/></clipPath><clipPath id="d6f02ebc69"><path d="M 82.960938 18.644531 L 184.234375 87.753906 L 128.082031 170.039062 L 26.808594 100.929688 Z M 82.960938 18.644531 " clip-rule="nonzero"/></clipPath><clipPath id="4b7140cf86"><path d="M 110 97 L 144 97 L 144 133 L 110 133 Z M 110 97 " clip-rule="nonzero"/></clipPath><clipPath id="69cff8470e"><path d="M 82.960938 18.644531 L 184.234375 87.753906 L 128.082031 170.039062 L 26.808594 100.929688 Z M 82.960938 18.644531 " clip-rule="nonzero"/></clipPath><clipPath id="c49f967ce9"><path d="M 82.960938 18.644531 L 184.234375 87.753906 L 128.082031 170.039062 L 26.808594 100.929688 Z M 82.960938 18.644531 " clip-rule="nonzero"/></clipPath><clipPath id="c14d280d79"><path d="M 112 86 L 165 86 L 165 121 L 112 121 Z M 112 86 " clip-rule="nonzero"/></clipPath><clipPath id="8f1f562324"><path d="M 82.960938 18.644531 L 184.234375 87.753906 L 128.082031 170.039062 L 26.808594 100.929688 Z M 82.960938 18.644531 " clip-rule="nonzero"/></clipPath><clipPath id="3869cf902d"><path d="M 82.960938 18.644531 L 184.234375 87.753906 L 128.082031 170.039062 L 26.808594 100.929688 Z M 82.960938 18.644531 " clip-rule="nonzero"/></clipPath><clipPath id="e787219ca2"><path d="M 110 85 L 166 85 L 166 122 L 110 122 Z M 110 85 " clip-rule="nonzero"/></clipPath><clipPath id="745dfa79bc"><path d="M 82.960938 18.644531 L 184.234375 87.753906 L 128.082031 170.039062 L 26.808594 100.929688 Z M 82.960938 18.644531 " clip-rule="nonzero"/></clipPath><clipPath id="d7dc80ecb5"><path d="M 82.960938 18.644531 L 184.234375 87.753906 L 128.082031 170.039062 L 26.808594 100.929688 Z M 82.960938 18.644531 " clip-rule="nonzero"/></clipPath><clipPath id="063fe80594"><path d="M 128.660156 71.332031 L 171.640625 100.660156 L 152.019531 129.410156 L 109.042969 100.082031 Z M 128.660156 71.332031 " clip-rule="nonzero"/></clipPath><clipPath id="cefff070ab"><path d="M 61 68 L 101 68 L 101 93 L 61 93 Z M 61 68 " clip-rule="nonzero"/></clipPath><clipPath id="f9543db906"><path d="M 82.960938 18.644531 L 184.234375 87.753906 L 128.082031 170.039062 L 26.808594 100.929688 Z M 82.960938 18.644531 " clip-rule="nonzero"/></clipPath><clipPath id="5450b666f0"><path d="M 82.960938 18.644531 L 184.234375 87.753906 L 128.082031 170.039062 L 26.808594 100.929688 Z M 82.960938 18.644531 " clip-rule="nonzero"/></clipPath><clipPath id="40deed83d8"><path d="M 60 67 L 102 67 L 102 94 L 60 94 Z M 60 67 " clip-rule="nonzero"/></clipPath><clipPath id="4cc3ea6b1f"><path d="M 82.960938 18.644531 L 184.234375 87.753906 L 128.082031 170.039062 L 26.808594 100.929688 Z M 82.960938 18.644531 " clip-rule="nonzero"/></clipPath><clipPath id="287dde6753"><path d="M 82.960938 18.644531 L 184.234375 87.753906 L 128.082031 170.039062 L 26.808594 100.929688 Z M 82.960938 18.644531 " clip-rule="nonzero"/></clipPath><clipPath id="a59adc2053"><path d="M 65 43 L 102 43 L 102 90 L 65 90 Z M 65 43 " clip-rule="nonzero"/></clipPath><clipPath id="88059cc642"><path d="M 82.960938 18.644531 L 184.234375 87.753906 L 128.082031 170.039062 L 26.808594 100.929688 Z M 82.960938 18.644531 " clip-rule="nonzero"/></clipPath><clipPath id="0b4a21c299"><path d="M 82.960938 18.644531 L 184.234375 87.753906 L 128.082031 170.039062 L 26.808594 100.929688 Z M 82.960938 18.644531 " clip-rule="nonzero"/></clipPath><clipPath id="e1a61de894"><path d="M 64 42 L 103 42 L 103 92 L 64 92 Z M 64 42 " clip-rule="nonzero"/></clipPath><clipPath id="634c02280b"><path d="M 82.960938 18.644531 L 184.234375 87.753906 L 128.082031 170.039062 L 26.808594 100.929688 Z M 82.960938 18.644531 " clip-rule="nonzero"/></clipPath><clipPath id="9cd0dd1ed0"><path d="M 82.960938 18.644531 L 184.234375 87.753906 L 128.082031 170.039062 L 26.808594 100.929688 Z M 82.960938 18.644531 " clip-rule="nonzero"/></clipPath><clipPath id="4c32b277af"><path d="M 192 113 L 221 113 L 221 146 L 192 146 Z M 192 113 " clip-rule="nonzero"/></clipPath><clipPath id="fc2a742e82"><path d="M 150.285156 166.054688 L 214.824219 61.808594 L 299.523438 114.246094 L 234.984375 218.496094 Z M 150.285156 166.054688 " clip-rule="nonzero"/></clipPath><clipPath id="0cb190e719"><path d="M 150.285156 166.054688 L 214.824219 61.808594 L 299.523438 114.246094 L 234.984375 218.496094 Z M 150.285156 166.054688 " clip-rule="nonzero"/></clipPath><clipPath id="77aaf45564"><path d="M 191 112 L 222 112 L 222 147 L 191 147 Z M 191 112 " clip-rule="nonzero"/></clipPath><clipPath id="5323e3b181"><path d="M 150.285156 166.054688 L 214.824219 61.808594 L 299.523438 114.246094 L 234.984375 218.496094 Z M 150.285156 166.054688 " clip-rule="nonzero"/></clipPath><clipPath id="90ef761bcf"><path d="M 150.285156 166.054688 L 214.824219 61.808594 L 299.523438 114.246094 L 234.984375 218.496094 Z M 150.285156 166.054688 " clip-rule="nonzero"/></clipPath><clipPath id="0e5ca774db"><path d="M 203 117 L 259 117 L 259 170 L 203 170 Z M 203 117 " clip-rule="nonzero"/></clipPath><clipPath id="9fa1dd6a46"><path d="M 150.285156 166.054688 L 214.824219 61.808594 L 299.523438 114.246094 L 234.984375 218.496094 Z M 150.285156 166.054688 " clip-rule="nonzero"/></clipPath><clipPath id="32bfd424b8"><path d="M 150.285156 166.054688 L 214.824219 61.808594 L 299.523438 114.246094 L 234.984375 218.496094 Z M 150.285156 166.054688 " clip-rule="nonzero"/></clipPath><clipPath id="232fc50220"><path d="M 203 117 L 265 117 L 265 172 L 203 172 Z M 203 117 " clip-rule="nonzero"/></clipPath><clipPath id="db24439651"><path d="M 150.285156 166.054688 L 214.824219 61.808594 L 299.523438 114.246094 L 234.984375 218.496094 Z M 150.285156 166.054688 " clip-rule="nonzero"/></clipPath><clipPath id="215358e590"><path d="M 150.285156 166.054688 L 214.824219 61.808594 L 299.523438 114.246094 L 234.984375 218.496094 Z M 150.285156 166.054688 " clip-rule="nonzero"/></clipPath><clipPath id="201551c695"><path d="M 193.695312 150.667969 L 220.3125 107.679688 L 277.542969 143.109375 L 250.929688 186.101562 Z M 193.695312 150.667969 " clip-rule="nonzero"/></clipPath><clipPath id="df35f8eb63"><path d="M 225 127 L 256 127 L 256 170 L 225 170 Z M 225 127 " clip-rule="nonzero"/></clipPath><clipPath id="e197152690"><path d="M 150.285156 166.054688 L 214.824219 61.808594 L 299.523438 114.246094 L 234.984375 218.496094 Z M 150.285156 166.054688 " clip-rule="nonzero"/></clipPath><clipPath id="03b08e6b71"><path d="M 150.285156 166.054688 L 214.824219 61.808594 L 299.523438 114.246094 L 234.984375 218.496094 Z M 150.285156 166.054688 " clip-rule="nonzero"/></clipPath><clipPath id="ccd1a60577"><path d="M 207 118 L 242 118 L 242 165 L 207 165 Z M 207 118 " clip-rule="nonzero"/></clipPath><clipPath id="6ee42e0c4e"><path d="M 150.285156 166.054688 L 214.824219 61.808594 L 299.523438 114.246094 L 234.984375 218.496094 Z M 150.285156 166.054688 " clip-rule="nonzero"/></clipPath><clipPath id="9ab6d04efd"><path d="M 150.285156 166.054688 L 214.824219 61.808594 L 299.523438 114.246094 L 234.984375 218.496094 Z M 150.285156 166.054688 " clip-rule="nonzero"/></clipPath><clipPath id="755bc80e94"><path d="M 172 126 L 195 126 L 195 141 L 172 141 Z M 172 126 " clip-rule="nonzero"/></clipPath><clipPath id="ec3b1c3261"><path d="M 150.285156 166.054688 L 214.824219 61.808594 L 299.523438 114.246094 L 234.984375 218.496094 Z M 150.285156 166.054688 " clip-rule="nonzero"/></clipPath><clipPath id="139711234d"><path d="M 150.285156 166.054688 L 214.824219 61.808594 L 299.523438 114.246094 L 234.984375 218.496094 Z M 150.285156 166.054688 " clip-rule="nonzero"/></clipPath><clipPath id="7f556861a6"><path d="M 171 132 L 179 132 L 179 142 L 171 142 Z M 171 132 " clip-rule="nonzero"/></clipPath><clipPath id="79df5ba5e0"><path d="M 150.285156 166.054688 L 214.824219 61.808594 L 299.523438 114.246094 L 234.984375 218.496094 Z M 150.285156 166.054688 " clip-rule="nonzero"/></clipPath><clipPath id="94617cd1af"><path d="M 150.285156 166.054688 L 214.824219 61.808594 L 299.523438 114.246094 L 234.984375 218.496094 Z M 150.285156 166.054688 " clip-rule="nonzero"/></clipPath><clipPath id="a979fc31f6"><path d="M 191 94 L 203 94 L 203 118 L 191 118 Z M 191 94 " clip-rule="nonzero"/></clipPath><clipPath id="5e67e9e1e8"><path d="M 150.285156 166.054688 L 214.824219 61.808594 L 299.523438 114.246094 L 234.984375 218.496094 Z M 150.285156 166.054688 " clip-rule="nonzero"/></clipPath><clipPath id="73cd8ddfa3"><path d="M 150.285156 166.054688 L 214.824219 61.808594 L 299.523438 114.246094 L 234.984375 218.496094 Z M 150.285156 166.054688 " clip-rule="nonzero"/></clipPath><clipPath id="17c2904816"><path d="M 194 93 L 205 93 L 205 101 L 194 101 Z M 194 93 " clip-rule="nonzero"/></clipPath><clipPath id="3f78bde110"><path d="M 150.285156 166.054688 L 214.824219 61.808594 L 299.523438 114.246094 L 234.984375 218.496094 Z M 150.285156 166.054688 " clip-rule="nonzero"/></clipPath><clipPath id="4c386b760b"><path d="M 150.285156 166.054688 L 214.824219 61.808594 L 299.523438 114.246094 L 234.984375 218.496094 Z M 150.285156 166.054688 " clip-rule="nonzero"/></clipPath><clipPath id="b92df26b6d"><path d="M 228 102 L 262 102 L 262 134 L 228 134 Z M 228 102 " clip-rule="nonzero"/></clipPath><clipPath id="cae3b21015"><path d="M 150.285156 166.054688 L 214.824219 61.808594 L 299.523438 114.246094 L 234.984375 218.496094 Z M 150.285156 166.054688 " clip-rule="nonzero"/></clipPath><clipPath id="469e55fbb8"><path d="M 150.285156 166.054688 L 214.824219 61.808594 L 299.523438 114.246094 L 234.984375 218.496094 Z M 150.285156 166.054688 " clip-rule="nonzero"/></clipPath><clipPath id="84b1e996b8"><path d="M 227 101 L 263 101 L 263 135 L 227 135 Z M 227 101 " clip-rule="nonzero"/></clipPath><clipPath id="7830d08ba5"><path d="M 150.285156 166.054688 L 214.824219 61.808594 L 299.523438 114.246094 L 234.984375 218.496094 Z M 150.285156 166.054688 " clip-rule="nonzero"/></clipPath><clipPath id="07e0086f7a"><path d="M 150.285156 166.054688 L 214.824219 61.808594 L 299.523438 114.246094 L 234.984375 218.496094 Z M 150.285156 166.054688 " clip-rule="nonzero"/></clipPath><clipPath id="a815589c46"><path d="M 215 80 L 250 80 L 250 134 L 215 134 Z M 215 80 " clip-rule="nonzero"/></clipPath><clipPath id="aaca782989"><path d="M 150.285156 166.054688 L 214.824219 61.808594 L 299.523438 114.246094 L 234.984375 218.496094 Z M 150.285156 166.054688 " clip-rule="nonzero"/></clipPath><clipPath id="3cac93c24b"><path d="M 150.285156 166.054688 L 214.824219 61.808594 L 299.523438 114.246094 L 234.984375 218.496094 Z M 150.285156 166.054688 " clip-rule="nonzero"/></clipPath><clipPath id="dc7263f2b0"><path d="M 214 79 L 251 79 L 251 135 L 214 135 Z M 214 79 " clip-rule="nonzero"/></clipPath><clipPath id="f12ca66809"><path d="M 150.285156 166.054688 L 214.824219 61.808594 L 299.523438 114.246094 L 234.984375 218.496094 Z M 150.285156 166.054688 " clip-rule="nonzero"/></clipPath><clipPath id="9123cba328"><path d="M 150.285156 166.054688 L 214.824219 61.808594 L 299.523438 114.246094 L 234.984375 218.496094 Z M 150.285156 166.054688 " clip-rule="nonzero"/></clipPath><clipPath id="05e1ec04d6"><path d="M 200.886719 118.058594 L 228.277344 73.816406 L 257.871094 92.136719 L 230.480469 136.378906 Z M 200.886719 118.058594 " clip-rule="nonzero"/></clipPath><clipPath id="cf1ed9046c"><path d="M 200 145 L 225 145 L 225 186 L 200 186 Z M 200 145 " clip-rule="nonzero"/></clipPath><clipPath id="5d9e65c0b4"><path d="M 150.285156 166.054688 L 214.824219 61.808594 L 299.523438 114.246094 L 234.984375 218.496094 Z M 150.285156 166.054688 " clip-rule="nonzero"/></clipPath><clipPath id="926b7f8e0c"><path d="M 150.285156 166.054688 L 214.824219 61.808594 L 299.523438 114.246094 L 234.984375 218.496094 Z M 150.285156 166.054688 " clip-rule="nonzero"/></clipPath><clipPath id="6b5e7a356a"><path d="M 199 144 L 226 144 L 226 187 L 199 187 Z M 199 144 " clip-rule="nonzero"/></clipPath><clipPath id="01c2c38929"><path d="M 150.285156 166.054688 L 214.824219 61.808594 L 299.523438 114.246094 L 234.984375 218.496094 Z M 150.285156 166.054688 " clip-rule="nonzero"/></clipPath><clipPath id="243fd8e6a9"><path d="M 150.285156 166.054688 L 214.824219 61.808594 L 299.523438 114.246094 L 234.984375 218.496094 Z M 150.285156 166.054688 " clip-rule="nonzero"/></clipPath><clipPath id="71e2249669"><path d="M 174 144 L 221 144 L 221 183 L 174 183 Z M 174 144 " clip-rule="nonzero"/></clipPath><clipPath id="7e33658dcf"><path d="M 150.285156 166.054688 L 214.824219 61.808594 L 299.523438 114.246094 L 234.984375 218.496094 Z M 150.285156 166.054688 " clip-rule="nonzero"/></clipPath><clipPath id="a03f3bf782"><path d="M 150.285156 166.054688 L 214.824219 61.808594 L 299.523438 114.246094 L 234.984375 218.496094 Z M 150.285156 166.054688 " clip-rule="nonzero"/></clipPath><clipPath id="8ece406c3f"><path d="M 173 143 L 222 143 L 222 184 L 173 184 Z M 173 143 " clip-rule="nonzero"/></clipPath><clipPath id="a473bab132"><path d="M 150.285156 166.054688 L 214.824219 61.808594 L 299.523438 114.246094 L 234.984375 218.496094 Z M 150.285156 166.054688 " clip-rule="nonzero"/></clipPath><clipPath id="64150d57b4"><path d="M 150.285156 166.054688 L 214.824219 61.808594 L 299.523438 114.246094 L 234.984375 218.496094 Z M 150.285156 166.054688 " clip-rule="nonzero"/></clipPath><clipPath id="85fbccc768"><path d="M 337 18 L 1144.078125 18 L 1144.078125 264 L 337 264 Z M 337 18 " clip-rule="nonzero"/></clipPath><clipPath id="9ac2ad4c1f"><rect x="0" width="808" y="0" height="246"/></clipPath><clipPath id="0eda46834f"><rect x="0" width="1145" y="0" height="278"/></clipPath></defs><rect x="-144" width="1728" fill="#ffffff" y="-80.999999" height="971.999992" fill-opacity="1"/><rect x="-144" width="1728" fill="#000000" y="-80.999999" height="971.999992" fill-opacity="1"/><g transform="matrix(1, 0, 0, 1, 168, 266)"><g clip-path="url(#0eda46834f)"><g clip-path="url(#ce5827f105)"><path fill="#fc0393" d="M 48.503906 239.175781 C 50.410156 263.578125 98.699219 277.515625 140.230469 276.851562 C 183.375 276.160156 234.875 260.996094 232.402344 235.601562 C 232.390625 235.511719 232.363281 235.429688 232.355469 235.347656 C 210.042969 245.746094 176.46875 253.136719 145.390625 253.558594 C 111.457031 254.019531 72.75 250.46875 48.503906 239.175781 Z M 48.503906 239.175781 " fill-opacity="1" fill-rule="nonzero"/></g><path fill="#702792" d="M 257.652344 208.230469 C 257.03125 205.328125 255.359375 202.617188 252.824219 200.097656 C 242.800781 206.429688 228.785156 212.246094 212.449219 216.894531 C 191.652344 222.816406 167.105469 226.835938 142.246094 227.585938 C 109.589844 228.570312 81.132812 225.78125 59.078125 219.75 C 45.0625 215.917969 33.644531 210.78125 25.402344 204.453125 C 24.957031 205.886719 24.691406 207.394531 24.648438 208.972656 C 24.285156 222.5 33.703125 232.277344 48.507812 239.175781 C 72.753906 250.46875 111.460938 254.019531 145.394531 253.558594 C 176.476562 253.136719 210.054688 245.742188 232.359375 235.347656 C 249.28125 227.457031 259.722656 217.839844 257.652344 208.230469 Z M 257.652344 208.230469 " fill-opacity="1" fill-rule="nonzero"/><path fill="#fc0393" d="M 268.964844 176.949219 C 268.011719 172.902344 264.886719 169.21875 260.066406 165.890625 C 248.472656 172.507812 232.515625 178.578125 214.152344 183.238281 C 192.546875 188.722656 167.632812 192.253906 142.632812 192.4375 C 113.496094 192.648438 82 189.84375 56.167969 183.4375 C 39.195312 179.230469 24.675781 173.472656 14.871094 165.992188 C 12.121094 169.15625 10.515625 172.746094 10.417969 176.828125 C 10.167969 187.589844 15.503906 196.867188 25.390625 204.453125 C 33.628906 210.78125 45.050781 215.917969 59.066406 219.75 C 81.121094 225.78125 109.578125 228.570312 142.238281 227.585938 C 167.09375 226.835938 191.640625 222.816406 212.441406 216.894531 C 228.773438 212.246094 242.789062 206.421875 252.8125 200.097656 C 264.503906 192.71875 270.773438 184.652344 268.964844 176.949219 Z M 268.964844 176.949219 " fill-opacity="1" fill-rule="nonzero"/><g clip-path="url(#871048acdf)"><path fill="#702792" d="M 279.503906 141.25 C 277.921875 135 270.769531 129.617188 259.933594 125.089844 C 247.652344 134.34375 225.578125 142.550781 200.261719 147.8125 C 182.980469 151.402344 164.191406 153.613281 145.988281 153.835938 C 119.191406 154.164062 89.339844 152.332031 64.292969 147.167969 C 42.234375 142.617188 23.914062 135.472656 14.691406 124.9375 C 6.757812 129.40625 1.730469 134.996094 1.511719 142.003906 C 1.210938 151.421875 6.203125 159.375 14.871094 165.988281 C 24.675781 173.464844 39.199219 179.226562 56.167969 183.433594 C 82 189.835938 113.496094 192.648438 142.632812 192.433594 C 167.632812 192.25 192.546875 188.714844 214.152344 183.234375 C 232.507812 178.574219 248.472656 172.507812 260.066406 165.886719 C 273.917969 157.976562 281.527344 149.277344 279.503906 141.25 Z M 279.503906 141.25 " fill-opacity="1" fill-rule="nonzero"/></g><path fill="#fc0393" d="M 269.9375 107.191406 C 268.363281 100.597656 260.882812 94.964844 249.621094 90.300781 C 239.714844 98.722656 222.675781 106.367188 202.800781 111.78125 C 185.175781 116.578125 165.328125 119.621094 146.257812 119.878906 C 119.664062 120.238281 89.875 117.800781 66.214844 111.15625 C 48.070312 106.058594 33.542969 98.484375 26.824219 87.792969 C 15.863281 92.679688 8.527344 99.203125 8.261719 107.9375 C 8.066406 114.390625 10.398438 120.023438 14.6875 124.925781 C 23.910156 135.464844 42.230469 142.609375 64.289062 147.160156 C 89.328125 152.324219 119.183594 154.152344 145.980469 153.824219 C 164.1875 153.605469 182.976562 151.390625 200.257812 147.800781 C 225.570312 142.546875 247.640625 134.332031 259.925781 125.078125 C 267.527344 119.371094 271.386719 113.25 269.9375 107.191406 Z M 269.9375 107.191406 " fill-opacity="1" fill-rule="nonzero"/><path fill="#702792" d="M 258.554688 72.394531 C 256.820312 64.3125 247.132812 57.679688 232.96875 52.488281 C 228.464844 62.425781 212.730469 71.328125 193.039062 77.234375 C 178.378906 81.628906 161.535156 84.367188 145.523438 84.625 C 122.324219 84.996094 96.28125 83.15625 77.277344 76.226562 C 62.199219 70.722656 51.5625 62.007812 50.292969 48.632812 C 34.71875 53.769531 23.117188 61.5 22.804688 73.148438 C 22.660156 78.582031 24.105469 83.445312 26.835938 87.796875 C 33.546875 98.484375 48.078125 106.058594 66.226562 111.164062 C 89.886719 117.808594 119.675781 120.246094 146.269531 119.886719 C 165.339844 119.628906 185.1875 116.582031 202.8125 111.785156 C 222.679688 106.375 239.726562 98.722656 249.628906 90.308594 C 256.402344 84.535156 259.84375 78.410156 258.554688 72.394531 Z M 258.554688 72.394531 " fill-opacity="1" fill-rule="nonzero"/><path fill="#fc0393" d="M 234.078125 44.511719 C 232.140625 33.875 217.464844 25.976562 198.023438 20.792969 C 198.292969 21.472656 198.507812 22.164062 198.625 22.878906 C 199.789062 29.847656 193.070312 36.480469 182.738281 41.53125 C 171.707031 46.914062 156.554688 50.5 142.417969 50.746094 C 124.054688 51.070312 102.90625 49.003906 91.09375 40.671875 C 85.289062 36.570312 81.722656 30.964844 81.882812 23.363281 C 81.914062 21.878906 82.175781 20.496094 82.628906 19.199219 C 65.328125 23.636719 50.46875 31.453125 50.15625 45.207031 C 50.128906 46.382812 50.183594 47.519531 50.292969 48.636719 C 51.5625 62.015625 62.203125 70.730469 77.28125 76.230469 C 96.28125 83.164062 122.324219 85.003906 145.523438 84.628906 C 161.535156 84.371094 178.378906 81.636719 193.039062 77.238281 C 212.730469 71.335938 228.464844 62.429688 232.96875 52.496094 C 234.144531 49.886719 234.570312 47.21875 234.078125 44.511719 Z M 234.078125 44.511719 " fill-opacity="1" fill-rule="nonzero"/><path fill="#702792" d="M 198.625 22.878906 C 198.507812 22.164062 198.292969 21.472656 198.023438 20.792969 C 192.933594 7.773438 161.761719 1.257812 136.652344 1.257812 C 136.652344 1.257812 89.148438 0.421875 82.621094 19.191406 C 82.175781 20.488281 81.90625 21.871094 81.878906 23.359375 C 81.71875 30.960938 85.28125 36.566406 91.089844 40.664062 C 102.902344 49.003906 124.050781 51.066406 142.410156 50.742188 C 156.550781 50.492188 171.703125 46.910156 182.734375 41.523438 C 193.070312 36.480469 199.789062 29.847656 198.625 22.878906 Z M 198.625 22.878906 " fill-opacity="1" fill-rule="nonzero"/><path fill="#fbc751" d="M 123.550781 179.828125 C 104.53125 145.046875 65.101562 166.082031 93.5 200.328125 C 101.121094 209.519531 111.742188 220.429688 126.289062 230.320312 C 138.03125 222.558594 175.84375 180.121094 159.949219 164.609375 C 139.582031 144.730469 123.550781 179.828125 123.550781 179.828125 Z M 123.550781 179.828125 " fill-opacity="1" fill-rule="nonzero"/><g clip-path="url(#efb5f40f0b)"><g clip-path="url(#62261fa6c8)"><g clip-path="url(#df3271b481)"><path fill="#000000" d="M 129.921875 88.375 C 134.523438 81.644531 133.65625 69.816406 126.125 64.667969 C 118.59375 59.515625 107.257812 62.996094 102.652344 69.722656 C 98.050781 76.453125 107.9375 75.097656 115.46875 80.25 C 123 85.398438 125.320312 95.105469 129.921875 88.375 " fill-opacity="1" fill-rule="nonzero"/></g></g></g><g clip-path="url(#e48c41fbcd)"><g clip-path="url(#85f7b41524)"><g clip-path="url(#4a9ab1af10)"><path fill="#000000" d="M 122.777344 85.921875 C 123.960938 87.347656 124.984375 88.578125 125.886719 89.195312 C 126.539062 89.636719 127.347656 90.191406 129.011719 87.753906 C 133.191406 81.644531 132.558594 70.386719 125.511719 65.566406 C 118.460938 60.742188 107.738281 64.238281 103.5625 70.347656 C 101.894531 72.785156 102.703125 73.335938 103.351562 73.78125 C 104.257812 74.398438 105.773438 74.90625 107.53125 75.496094 C 110.074219 76.34375 113.238281 77.40625 116.082031 79.347656 C 118.925781 81.292969 121.058594 83.859375 122.777344 85.921875 Z M 101.746094 69.101562 C 106.578125 62.035156 118.550781 58.164062 126.742188 63.765625 C 134.929688 69.371094 135.664062 81.929688 130.832031 88.996094 C 128.910156 91.808594 126.832031 92.476562 124.660156 90.992188 C 123.5 90.199219 122.382812 88.859375 121.089844 87.304688 C 119.378906 85.25 117.441406 82.917969 114.851562 81.148438 C 112.265625 79.378906 109.390625 78.414062 106.851562 77.566406 C 104.9375 76.925781 103.28125 76.371094 102.125 75.578125 C 99.949219 74.09375 99.820312 71.914062 101.746094 69.101562 " fill-opacity="1" fill-rule="nonzero"/></g></g></g><g clip-path="url(#67770a8af6)"><g clip-path="url(#d9160f43bf)"><g clip-path="url(#5db80324ed)"><path fill="#fbc751" d="M 117.222656 77.25 C 128.210938 84.765625 131.546875 99.003906 122.289062 112.539062 C 113.75 125.027344 100.332031 130.976562 89.488281 125.800781 C 88.578125 125.363281 82.558594 121.21875 81.742188 120.421875 C 73.265625 112.128906 74.050781 97.671875 82.496094 85.324219 C 91.757812 71.789062 106.234375 69.734375 117.222656 77.25 " fill-opacity="1" fill-rule="nonzero"/></g></g></g><g clip-path="url(#79792a088c)"><g clip-path="url(#3915ce81f9)"><g clip-path="url(#48e8b25749)"><g clip-path="url(#f0c2498dc6)"><path fill="#000000" d="M 82.789062 86.746094 C 74.449219 98.9375 74.082031 112.792969 81.894531 120.433594 C 83.140625 121.652344 88.441406 125.171875 89.347656 125.605469 C 99.378906 130.398438 112.296875 125.097656 120.761719 112.71875 C 129.128906 100.488281 127.164062 86.605469 115.984375 78.957031 C 104.804688 71.3125 91.15625 74.515625 82.789062 86.746094 Z M 80.523438 122.652344 C 80.4375 122.246094 80.21875 121.882812 79.933594 121.582031 C 75.882812 117.382812 73.851562 111.71875 74.054688 105.160156 C 74.257812 98.710938 76.710938 91.730469 80.972656 85.503906 C 85.558594 78.796875 91.574219 74.511719 98.371094 73.113281 C 104.800781 71.789062 111.496094 73.21875 117.226562 77.140625 C 122.957031 81.058594 126.71875 86.78125 127.816406 93.253906 C 128.976562 100.09375 127.167969 107.257812 122.582031 113.960938 C 113.792969 126.8125 100.367188 132.480469 89.515625 128.085938 C 88.960938 127.863281 88.34375 127.871094 87.796875 128.109375 C 84.457031 129.550781 80.816406 134.191406 79.785156 132.804688 C 78.34375 130.867188 81.226562 126.078125 80.523438 122.652344 " fill-opacity="1" fill-rule="nonzero"/></g></g></g></g><g clip-path="url(#bdb2ac6e33)"><g clip-path="url(#06765f9e1c)"><g clip-path="url(#bfa03bddad)"><path fill="#000000" d="M 76.046875 103.917969 C 99.074219 107.957031 107.957031 124.800781 108.046875 124.972656 L 116.980469 119.738281 C 116.535156 118.878906 105.855469 98.609375 78.347656 93.789062 L 76.046875 103.917969 " fill-opacity="1" fill-rule="nonzero"/></g></g></g><g clip-path="url(#20e9811036)"><g clip-path="url(#54246f341e)"><g clip-path="url(#ceacdb1eee)"><path fill="#000000" d="M 81.957031 84.8125 C 105.066406 88.738281 122.875 111.390625 122.957031 111.558594 L 126.648438 101.398438 C 126.210938 100.53125 119.703125 81.164062 92.105469 76.476562 L 81.957031 84.8125 " fill-opacity="1" fill-rule="nonzero"/></g></g></g><g clip-path="url(#387c03ea0f)"><g clip-path="url(#702617ec6d)"><g clip-path="url(#8a2adc084f)"><path fill="#000000" d="M 116.289062 63.066406 L 118.226562 64.089844 C 118.289062 63.933594 119.792969 60.246094 120.6875 55.941406 C 121.957031 49.816406 121.355469 45.785156 118.847656 43.613281 C 116.4375 41.53125 112.742188 41.511719 107.542969 43.550781 L 108.761719 45.261719 C 113.039062 43.582031 116.113281 43.402344 117.667969 44.742188 C 120.964844 47.59375 118.574219 57.496094 116.289062 63.066406 " fill-opacity="1" fill-rule="nonzero"/></g></g></g><g clip-path="url(#6a8f46ae4e)"><g clip-path="url(#d8d8fa2012)"><g clip-path="url(#c7f5e4e546)"><path fill="#000000" d="M 108.71875 41.785156 C 106.699219 43.253906 106.242188 45.628906 107.695312 47.09375 C 109.148438 48.558594 111.964844 48.558594 113.980469 47.09375 C 116 45.625 116.457031 43.246094 115.003906 41.78125 C 113.550781 40.316406 110.734375 40.320312 108.71875 41.785156 " fill-opacity="1" fill-rule="nonzero"/></g></g></g><g clip-path="url(#bcbe85ceb1)"><g clip-path="url(#dc712d1096)"><g clip-path="url(#4b7197b712)"><path fill="#000000" d="M 130.777344 72.976562 L 129.121094 71.542969 C 129.246094 71.425781 132.136719 68.6875 135.824219 66.296875 C 141.070312 62.890625 145.046875 61.988281 147.980469 63.539062 C 150.792969 65.027344 152.152344 68.46875 152.136719 74.050781 L 150.101562 73.535156 C 150.117188 68.941406 149.167969 66.007812 147.355469 65.046875 C 143.503906 63.007812 135.140625 68.828125 130.777344 72.976562 " fill-opacity="1" fill-rule="nonzero"/></g></g></g><g clip-path="url(#ea66319ec2)"><g clip-path="url(#bb84b621ab)"><g clip-path="url(#ffa8f66270)"><path fill="#000000" d="M 153.355469 72.316406 C 152.722656 74.726562 150.671875 76.015625 148.78125 75.195312 C 146.886719 74.371094 145.867188 71.746094 146.503906 69.335938 C 147.140625 66.921875 149.1875 65.632812 151.078125 66.457031 C 152.972656 67.28125 153.992188 69.902344 153.355469 72.316406 " fill-opacity="1" fill-rule="nonzero"/></g></g></g><g clip-path="url(#7dbe49edf9)"><g clip-path="url(#33ac41c4eb)"><g clip-path="url(#d6f02ebc69)"><path fill="#1cd4f0" d="M 111.84375 98.195312 C 111.84375 98.195312 136.003906 98.140625 140.828125 112.214844 C 145.652344 126.292969 136.710938 134.277344 126.339844 130.789062 C 115.96875 127.296875 111.84375 98.195312 111.84375 98.195312 " fill-opacity="1" fill-rule="nonzero"/></g></g></g><g clip-path="url(#4b7140cf86)"><g clip-path="url(#69cff8470e)"><g clip-path="url(#c49f967ce9)"><path fill="#000000" d="M 113.015625 99.242188 C 113.875 104.382812 117.578125 123.890625 125 128.964844 C 125.558594 129.347656 126.128906 129.636719 126.695312 129.828125 C 131.230469 131.355469 135.570312 130.566406 138.304688 127.722656 C 141.480469 124.421875 142.058594 118.90625 139.894531 112.597656 C 138.878906 109.636719 136.847656 107.097656 133.851562 105.046875 C 126.875 100.277344 116.542969 99.402344 113.015625 99.242188 Z M 110.867188 98.398438 L 110.695312 97.191406 L 111.898438 97.1875 C 112.472656 97.1875 126.054688 97.222656 135.011719 103.351562 C 138.34375 105.628906 140.613281 108.484375 141.761719 111.835938 C 144.183594 118.902344 143.421875 125.191406 139.675781 129.09375 C 136.371094 132.53125 131.253906 133.523438 125.984375 131.746094 C 125.253906 131.503906 124.535156 131.136719 123.839844 130.664062 C 114.644531 124.375 111.015625 99.453125 110.867188 98.398438 " fill-opacity="1" fill-rule="nonzero"/></g></g></g><g clip-path="url(#c14d280d79)"><g clip-path="url(#8f1f562324)"><g clip-path="url(#3869cf902d)"><path fill="#1cd4f0" d="M 112.296875 98.007812 C 112.296875 98.007812 138.828125 79.601562 154.363281 90.21875 C 169.894531 100.835938 165.863281 115.734375 151.917969 120.070312 C 137.972656 124.40625 112.296875 98.007812 112.296875 98.007812 " fill-opacity="1" fill-rule="nonzero"/></g></g></g><g clip-path="url(#e787219ca2)"><g clip-path="url(#745dfa79bc)"><g clip-path="url(#d7dc80ecb5)"><g clip-path="url(#063fe80594)"><path fill="#000000" d="M 127.839844 91.058594 C 121.433594 93.503906 116.070312 96.734375 113.878906 98.136719 C 116.195312 100.417969 122.902344 106.789062 130.472656 111.96875 C 130.472656 111.96875 130.476562 111.96875 130.476562 111.96875 C 139.503906 118.144531 146.839844 120.613281 151.683594 119.105469 C 157.890625 117.175781 162.171875 112.988281 163.136719 107.910156 C 164.25 102.035156 160.84375 95.894531 153.78125 91.066406 C 146.101562 85.816406 135.433594 88.164062 127.839844 91.058594 Z M 111.578125 98.742188 L 110.753906 97.894531 L 111.777344 97.183594 C 112.050781 96.992188 118.613281 92.472656 127.207031 89.191406 C 138.738281 84.785156 148.328125 84.847656 154.949219 89.375 C 162.648438 94.640625 166.339844 101.496094 165.070312 108.183594 C 163.957031 114.0625 159.128906 118.863281 152.15625 121.035156 C 146.648438 122.746094 138.964844 120.265625 129.316406 113.667969 C 129.3125 113.664062 129.316406 113.667969 129.3125 113.664062 C 119.808594 107.164062 111.660156 98.824219 111.578125 98.742188 " fill-opacity="1" fill-rule="nonzero"/></g></g></g></g><g clip-path="url(#cefff070ab)"><g clip-path="url(#f9543db906)"><g clip-path="url(#5450b666f0)"><path fill="#1cd4f0" d="M 100.109375 90.191406 C 100.109375 90.191406 91.355469 67.671875 76.488281 68.3125 C 61.621094 68.949219 57.445312 80.1875 64.476562 88.574219 C 71.507812 96.957031 100.109375 90.191406 100.109375 90.191406 " fill-opacity="1" fill-rule="nonzero"/></g></g></g><g clip-path="url(#40deed83d8)"><g clip-path="url(#4cc3ea6b1f)"><g clip-path="url(#287dde6753)"><path fill="#000000" d="M 85.707031 72.195312 C 82.707031 70.152344 79.601562 69.183594 76.472656 69.320312 C 69.808594 69.605469 64.886719 72.152344 62.96875 76.3125 C 61.316406 79.894531 62.167969 84.222656 65.242188 87.890625 C 65.628906 88.351562 66.105469 88.777344 66.664062 89.15625 C 74.097656 94.214844 93.609375 90.550781 98.710938 89.476562 C 97.277344 86.253906 92.691406 76.953125 85.707031 72.195312 Z M 65.503906 90.855469 C 64.808594 90.382812 64.207031 89.84375 63.714844 89.253906 C 60.140625 84.992188 59.199219 79.867188 61.195312 75.539062 C 63.460938 70.625 69.039062 67.625 76.503906 67.300781 C 80.042969 67.152344 83.53125 68.222656 86.863281 70.496094 C 95.835938 76.601562 100.820312 89.234375 101.03125 89.769531 L 101.464844 90.890625 L 100.28125 91.171875 C 99.242188 91.417969 74.714844 97.125 65.503906 90.855469 " fill-opacity="1" fill-rule="nonzero"/></g></g></g><g clip-path="url(#a59adc2053)"><g clip-path="url(#88059cc642)"><g clip-path="url(#0b4a21c299)"><path fill="#1cd4f0" d="M 100.121094 89.699219 C 100.121094 89.699219 107.589844 58.28125 92.039062 47.6875 C 76.488281 37.09375 64.089844 46.28125 65.132812 60.847656 C 66.179688 75.414062 100.121094 89.699219 100.121094 89.699219 " fill-opacity="1" fill-rule="nonzero"/></g></g></g><g clip-path="url(#e1a61de894)"><g clip-path="url(#634c02280b)"><g clip-path="url(#9cd0dd1ed0)"><path fill="#000000" d="M 91.460938 48.539062 C 84.390625 43.722656 77.433594 42.789062 72.367188 45.96875 C 67.988281 48.71875 65.652344 54.230469 66.117188 60.714844 C 66.480469 65.773438 71.453125 71.703125 80.492188 77.863281 C 80.492188 77.863281 80.492188 77.863281 80.496094 77.863281 C 88.078125 83.023438 96.457031 86.945312 99.421875 88.273438 C 99.929688 85.722656 100.984375 79.546875 100.921875 72.691406 C 100.851562 64.566406 99.148438 53.777344 91.460938 48.539062 Z M 79.335938 79.5625 C 69.671875 72.980469 64.5625 66.726562 64.148438 60.976562 C 63.625 53.691406 66.339844 47.445312 71.40625 44.265625 C 77.167969 40.648438 84.898438 41.582031 92.609375 46.835938 C 99.238281 51.351562 102.792969 60.257812 102.898438 72.601562 C 102.972656 81.800781 101.15625 89.558594 101.078125 89.882812 L 100.789062 91.09375 L 99.699219 90.636719 C 99.59375 90.589844 88.855469 86.042969 79.335938 79.5625 " fill-opacity="1" fill-rule="nonzero"/></g></g></g><g clip-path="url(#4c32b277af)"><g clip-path="url(#fc2a742e82)"><g clip-path="url(#0cb190e719)"><path fill="#000000" d="M 217.859375 116.039062 C 210.929688 111.742188 199.152344 113.136719 194.34375 120.886719 C 189.53125 128.636719 193.511719 139.8125 200.4375 144.109375 C 207.367188 148.410156 205.570312 138.59375 210.382812 130.839844 C 215.191406 123.089844 224.785156 120.339844 217.859375 116.039062 " fill-opacity="1" fill-rule="nonzero"/></g></g></g><g clip-path="url(#77aaf45564)"><g clip-path="url(#5323e3b181)"><g clip-path="url(#90ef761bcf)"><path fill="#000000" d="M 215.722656 123.289062 C 217.097656 122.039062 218.277344 120.964844 218.855469 120.03125 C 219.269531 119.363281 219.789062 118.53125 217.277344 116.976562 C 210.992188 113.074219 199.769531 114.203125 195.265625 121.460938 C 190.765625 128.71875 194.730469 139.273438 201.019531 143.175781 C 203.527344 144.730469 204.046875 143.898438 204.460938 143.230469 C 205.039062 142.300781 205.476562 140.761719 205.988281 138.980469 C 206.722656 136.402344 207.640625 133.195312 209.457031 130.265625 C 211.273438 127.339844 213.742188 125.09375 215.722656 123.289062 Z M 199.859375 145.046875 C 192.582031 140.53125 188.183594 128.746094 193.417969 120.3125 C 198.648438 111.882812 211.164062 110.589844 218.4375 115.101562 C 221.332031 116.898438 222.09375 118.945312 220.707031 121.179688 C 219.964844 122.375 218.675781 123.550781 217.183594 124.910156 C 215.203125 126.710938 212.960938 128.75 211.308594 131.414062 C 209.65625 134.078125 208.820312 136.996094 208.085938 139.566406 C 207.53125 141.507812 207.050781 143.1875 206.3125 144.378906 C 204.921875 146.617188 202.75 146.839844 199.859375 145.046875 " fill-opacity="1" fill-rule="nonzero"/></g></g></g><g clip-path="url(#0e5ca774db)"><g clip-path="url(#9fa1dd6a46)"><g clip-path="url(#32bfd424b8)"><path fill="#fbc751" d="M 207.308594 129.21875 C 214.328125 117.910156 228.402344 113.941406 242.339844 122.589844 C 255.195312 130.566406 261.734375 143.707031 257.042969 154.769531 C 256.648438 155.699219 252.777344 161.894531 252.015625 162.746094 C 244.105469 171.585938 229.628906 171.441406 216.917969 163.554688 C 202.984375 154.90625 200.289062 140.53125 207.308594 129.21875 " fill-opacity="1" fill-rule="nonzero"/></g></g></g><g clip-path="url(#232fc50220)"><g clip-path="url(#db24439651)"><g clip-path="url(#215358e590)"><g clip-path="url(#201551c695)"><path fill="#000000" d="M 218.328125 163.199219 C 230.878906 170.988281 244.734375 170.738281 252.023438 162.59375 C 253.183594 161.296875 256.464844 155.84375 256.855469 154.917969 C 261.199219 144.6875 255.328125 132.015625 242.585938 124.105469 C 229.992188 116.292969 216.210938 118.875 209.070312 130.382812 C 201.929688 141.890625 205.738281 155.386719 218.328125 163.199219 Z M 254.296875 163.867188 C 253.894531 163.96875 253.542969 164.203125 253.257812 164.503906 C 249.242188 168.738281 243.671875 171.015625 237.109375 171.105469 C 230.660156 171.191406 223.574219 169.046875 217.164062 165.070312 C 210.261719 160.785156 205.714844 154.964844 204.015625 148.238281 C 202.40625 141.875 203.539062 135.121094 207.199219 129.222656 C 210.859375 123.320312 216.410156 119.308594 222.824219 117.925781 C 229.609375 116.460938 236.84375 117.953125 243.746094 122.234375 C 256.976562 130.445312 263.234375 143.605469 259.328125 154.640625 C 259.128906 155.203125 259.164062 155.820312 259.425781 156.355469 C 261.015625 159.628906 265.8125 163.0625 264.472656 164.152344 C 262.601562 165.675781 257.691406 163.011719 254.296875 163.867188 " fill-opacity="1" fill-rule="nonzero"/></g></g></g></g><g clip-path="url(#df35f8eb63)"><g clip-path="url(#e197152690)"><g clip-path="url(#03b08e6b71)"><path fill="#000000" d="M 235.78125 169.171875 C 238.792969 145.984375 255.226562 136.363281 255.390625 136.265625 L 249.769531 127.574219 C 248.929688 128.054688 229.152344 139.628906 225.558594 167.320312 L 235.78125 169.171875 " fill-opacity="1" fill-rule="nonzero"/></g></g></g><g clip-path="url(#ccd1a60577)"><g clip-path="url(#6ee42e0c4e)"><g clip-path="url(#9ab6d04efd)"><path fill="#000000" d="M 216.433594 164.113281 C 219.324219 140.855469 241.164062 122.058594 241.332031 121.964844 L 231.011719 118.730469 C 230.167969 119.207031 211.109375 126.566406 207.652344 154.347656 L 216.433594 164.113281 " fill-opacity="1" fill-rule="nonzero"/></g></g></g><g clip-path="url(#755bc80e94)"><g clip-path="url(#ec3b1c3261)"><g clip-path="url(#139711234d)"><path fill="#000000" d="M 193.183594 130.785156 L 194.117188 128.804688 C 193.960938 128.746094 190.207031 127.410156 185.867188 126.707031 C 179.691406 125.710938 175.691406 126.492188 173.632812 129.09375 C 171.660156 131.59375 171.804688 135.289062 174.074219 140.390625 L 175.726562 139.097656 C 173.859375 134.898438 173.542969 131.835938 174.8125 130.222656 C 177.515625 126.800781 187.515625 128.75 193.183594 130.785156 " fill-opacity="1" fill-rule="nonzero"/></g></g></g><g clip-path="url(#7f556861a6)"><g clip-path="url(#79df5ba5e0)"><g clip-path="url(#94617cd1af)"><path fill="#000000" d="M 172.257812 139.292969 C 173.8125 141.246094 176.207031 141.597656 177.609375 140.078125 C 179.007812 138.5625 178.878906 135.75 177.324219 133.800781 C 175.769531 131.847656 173.375 131.496094 171.976562 133.015625 C 170.578125 134.53125 170.703125 137.34375 172.257812 139.292969 " fill-opacity="1" fill-rule="nonzero"/></g></g></g><g clip-path="url(#a979fc31f6)"><g clip-path="url(#5e67e9e1e8)"><g clip-path="url(#73cd8ddfa3)"><path fill="#000000" d="M 202.4375 115.871094 L 201.078125 117.585938 C 200.957031 117.46875 198.09375 114.703125 195.539062 111.125 C 191.902344 106.035156 190.824219 102.101562 192.246094 99.105469 C 193.609375 96.226562 196.984375 94.714844 202.5625 94.484375 L 202.136719 96.539062 C 197.546875 96.730469 194.660156 97.804688 193.78125 99.660156 C 191.914062 103.601562 198.097656 111.695312 202.4375 115.871094 " fill-opacity="1" fill-rule="nonzero"/></g></g></g><g clip-path="url(#17c2904816)"><g clip-path="url(#3f78bde110)"><g clip-path="url(#4c386b760b)"><path fill="#000000" d="M 200.773438 93.34375 C 203.210938 93.871094 204.589844 95.859375 203.851562 97.785156 C 203.113281 99.714844 200.539062 100.847656 198.101562 100.320312 C 195.660156 99.792969 194.28125 97.804688 195.019531 95.878906 C 195.757812 93.949219 198.335938 92.816406 200.773438 93.34375 " fill-opacity="1" fill-rule="nonzero"/></g></g></g><g clip-path="url(#b92df26b6d)"><g clip-path="url(#cae3b21015)"><g clip-path="url(#469e55fbb8)"><path fill="#1cd4f0" d="M 228.472656 133.664062 C 228.472656 133.664062 227.34375 109.53125 241.191406 104.082031 C 255.039062 98.636719 263.414062 107.214844 260.390625 117.730469 C 257.363281 128.25 228.472656 133.664062 228.472656 133.664062 " fill-opacity="1" fill-rule="nonzero"/></g></g></g><g clip-path="url(#84b1e996b8)"><g clip-path="url(#7830d08ba5)"><g clip-path="url(#07e0086f7a)"><path fill="#000000" d="M 229.464844 132.445312 C 234.5625 131.359375 253.886719 126.792969 258.628906 119.152344 C 258.984375 118.578125 259.246094 117.996094 259.414062 117.417969 C 260.738281 112.820312 259.757812 108.519531 256.792969 105.914062 C 253.355469 102.890625 247.820312 102.558594 241.613281 105 C 238.703125 106.144531 236.253906 108.289062 234.339844 111.375 C 229.886719 118.554688 229.46875 128.914062 229.464844 132.445312 Z M 228.71875 134.628906 L 227.519531 134.855469 L 227.464844 133.652344 C 227.4375 133.082031 226.871094 119.511719 232.59375 110.289062 C 234.722656 106.859375 237.472656 104.464844 240.769531 103.167969 C 247.722656 100.433594 254.039062 100.914062 258.105469 104.488281 C 261.683594 107.632812 262.902344 112.703125 261.363281 118.046875 C 261.152344 118.785156 260.820312 119.519531 260.375 120.234375 C 260.375 120.238281 260.375 120.234375 260.375 120.234375 C 254.5 129.703125 229.765625 134.433594 228.71875 134.628906 " fill-opacity="1" fill-rule="nonzero"/></g></g></g><g clip-path="url(#a815589c46)"><g clip-path="url(#aaca782989)"><g clip-path="url(#3cac93c24b)"><path fill="#1cd4f0" d="M 228.265625 133.21875 C 228.265625 133.21875 208.695312 107.53125 218.613281 91.542969 C 228.53125 75.550781 243.589844 78.917969 248.542969 92.65625 C 253.496094 106.394531 228.265625 133.21875 228.265625 133.21875 " fill-opacity="1" fill-rule="nonzero"/></g></g></g><g clip-path="url(#dc7263f2b0)"><g clip-path="url(#f12ca66809)"><g clip-path="url(#9123cba328)"><g clip-path="url(#05e1ec04d6)"><path fill="#000000" d="M 220.632812 118 C 223.359375 124.289062 226.828125 129.503906 228.324219 131.632812 C 230.496094 129.214844 236.566406 122.234375 241.402344 114.441406 C 241.402344 114.4375 241.40625 114.4375 241.40625 114.4375 C 247.171875 105.144531 249.3125 97.707031 247.589844 92.933594 C 245.386719 86.816406 241.015625 82.726562 235.898438 81.992188 C 229.976562 81.140625 223.996094 84.816406 219.488281 92.082031 C 214.582031 99.992188 217.402344 110.542969 220.632812 118 Z M 229.03125 133.902344 L 228.21875 134.765625 L 227.464844 133.773438 C 227.261719 133.507812 222.453125 127.15625 218.792969 118.714844 C 213.882812 107.394531 213.515625 97.808594 217.746094 90.992188 C 222.664062 83.066406 229.347656 79.074219 236.085938 80.042969 C 242.003906 80.894531 247.019531 85.503906 249.496094 92.375 C 251.453125 97.800781 249.316406 105.585938 243.152344 115.523438 C 237.078125 125.308594 229.109375 133.820312 229.03125 133.902344 " fill-opacity="1" fill-rule="nonzero"/></g></g></g></g><g clip-path="url(#cf1ed9046c)"><g clip-path="url(#5d9e65c0b4)"><g clip-path="url(#926b7f8e0c)"><path fill="#1cd4f0" d="M 220.996094 145.742188 C 220.996094 145.742188 198.890625 155.488281 200.191406 170.3125 C 201.488281 185.136719 212.902344 188.808594 220.964844 181.410156 C 229.03125 174.011719 220.996094 145.742188 220.996094 145.742188 " fill-opacity="1" fill-rule="nonzero"/></g></g></g><g clip-path="url(#6b5e7a356a)"><g clip-path="url(#01c2c38929)"><g clip-path="url(#243fd8e6a9)"><path fill="#000000" d="M 203.660156 160.929688 C 201.753906 164.015625 200.925781 167.164062 201.199219 170.28125 C 201.78125 176.925781 204.546875 181.730469 208.785156 183.460938 C 212.4375 184.953125 216.722656 183.914062 220.25 180.675781 C 220.691406 180.273438 221.097656 179.777344 221.453125 179.203125 C 226.175781 171.550781 221.648438 152.21875 220.347656 147.171875 C 217.191406 148.746094 208.101562 153.738281 203.660156 160.929688 Z M 223.199219 180.28125 C 222.757812 181 222.246094 181.625 221.679688 182.144531 C 217.582031 185.902344 212.503906 187.074219 208.089844 185.269531 C 203.082031 183.226562 199.835938 177.785156 199.179688 170.339844 C 198.871094 166.8125 199.789062 163.28125 201.910156 159.847656 C 207.613281 150.617188 220.011719 145.074219 220.539062 144.839844 L 221.636719 144.355469 L 221.96875 145.527344 C 222.261719 146.554688 229.054688 170.804688 223.199219 180.28125 " fill-opacity="1" fill-rule="nonzero"/></g></g></g><g clip-path="url(#71e2249669)"><g clip-path="url(#7e33658dcf)"><g clip-path="url(#a03f3bf782)"><path fill="#1cd4f0" d="M 220.503906 145.753906 C 220.503906 145.753906 188.789062 139.6875 178.898438 155.695312 C 169.003906 171.699219 178.734375 183.679688 193.238281 181.988281 C 207.742188 180.296875 220.503906 145.753906 220.503906 145.753906 " fill-opacity="1" fill-rule="nonzero"/></g></g></g><g clip-path="url(#8ece406c3f)"><g clip-path="url(#a473bab132)"><g clip-path="url(#64150d57b4)"><path fill="#000000" d="M 179.769531 156.234375 C 175.277344 163.511719 174.652344 170.503906 178.054688 175.425781 C 180.992188 179.675781 186.605469 181.765625 193.0625 181.011719 C 198.101562 180.421875 203.804688 175.195312 209.554688 165.886719 C 214.375 158.082031 217.917969 149.535156 219.113281 146.511719 C 216.539062 146.121094 210.324219 145.339844 203.480469 145.707031 C 195.363281 146.140625 184.664062 148.320312 179.769531 156.234375 Z M 211.304688 166.964844 C 211.300781 166.964844 211.300781 166.964844 211.300781 166.96875 C 205.15625 176.914062 199.140625 182.296875 193.414062 182.964844 C 186.160156 183.8125 179.796875 181.378906 176.394531 176.460938 C 172.523438 170.863281 173.117188 163.097656 178.015625 155.160156 C 182.234375 148.335938 190.976562 144.390625 203.300781 143.738281 C 212.488281 143.253906 220.320312 144.726562 220.648438 144.789062 L 221.871094 145.023438 L 221.460938 146.128906 C 221.417969 146.242188 217.355469 157.167969 211.304688 166.964844 " fill-opacity="1" fill-rule="nonzero"/></g></g></g><g clip-path="url(#85fbccc768)"><g transform="matrix(1, 0, 0, 1, 337, 18)"><g clip-path="url(#9ac2ad4c1f)"><g fill="#1cd4f0" fill-opacity="1"><g transform="translate(0.58752, 187.593066)"><g><path d="M 95.015625 -54.90625 L 43.953125 -54.90625 L 43.953125 0 L 14.78125 0 L 14.78125 -133.984375 L 43.953125 -133.984375 L 43.953125 -80.625 L 95.015625 -80.625 L 95.015625 -133.984375 L 124.1875 -133.984375 L 124.1875 0 L 95.015625 0 Z M 95.015625 -54.90625 "/></g></g></g><g fill="#1cd4f0" fill-opacity="1"><g transform="translate(139.540733, 187.593066)"><g><path d="M 27.453125 -111.53125 C 21.691406 -111.53125 17.5 -112.835938 14.875 -115.453125 C 12.25 -118.078125 10.9375 -121.4375 10.9375 -125.53125 L 10.9375 -129.765625 C 10.9375 -133.859375 12.25 -137.210938 14.875 -139.828125 C 17.5 -142.453125 21.691406 -143.765625 27.453125 -143.765625 C 33.210938 -143.765625 37.398438 -142.453125 40.015625 -139.828125 C 42.640625 -137.210938 43.953125 -133.859375 43.953125 -129.765625 L 43.953125 -125.53125 C 43.953125 -121.4375 42.640625 -118.078125 40.015625 -115.453125 C 37.398438 -112.835938 33.210938 -111.53125 27.453125 -111.53125 Z M 13.25 -100.78125 L 41.65625 -100.78125 L 41.65625 0 L 13.25 0 Z M 13.25 -100.78125 "/></g></g></g><g fill="#1cd4f0" fill-opacity="1"><g transform="translate(194.431065, 187.593066)"><g><path d="M 34.75 0 L 1.734375 -100.78125 L 29.75 -100.78125 L 42.234375 -60.078125 L 51.640625 -23.609375 L 53.171875 -23.609375 L 62.578125 -60.078125 L 74.671875 -100.78125 L 101.546875 -100.78125 L 68.53125 0 Z M 34.75 0 "/></g></g></g><g fill="#1cd4f0" fill-opacity="1"><g transform="translate(297.686291, 187.593066)"><g><path d="M 55.28125 2.296875 C 47.601562 2.296875 40.753906 1.050781 34.734375 -1.4375 C 28.722656 -3.9375 23.640625 -7.457031 19.484375 -12 C 15.328125 -16.539062 12.191406 -22.070312 10.078125 -28.59375 C 7.960938 -35.125 6.90625 -42.421875 6.90625 -50.484375 C 6.90625 -58.421875 7.925781 -65.617188 9.96875 -72.078125 C 12.019531 -78.535156 15.0625 -84.066406 19.09375 -88.671875 C 23.125 -93.285156 28.082031 -96.835938 33.96875 -99.328125 C 39.863281 -101.828125 46.582031 -103.078125 54.125 -103.078125 C 62.445312 -103.078125 69.582031 -101.671875 75.53125 -98.859375 C 81.476562 -96.046875 86.335938 -92.269531 90.109375 -87.53125 C 93.890625 -82.789062 96.644531 -77.316406 98.375 -71.109375 C 100.101562 -64.910156 100.96875 -58.421875 100.96875 -51.640625 L 100.96875 -43.1875 L 36.28125 -43.1875 L 36.28125 -41.65625 C 36.28125 -35 38.070312 -29.71875 41.65625 -25.8125 C 45.238281 -21.914062 50.867188 -19.96875 58.546875 -19.96875 C 64.429688 -19.96875 69.226562 -21.148438 72.9375 -23.515625 C 76.65625 -25.878906 80.113281 -28.726562 83.3125 -32.0625 L 97.515625 -14.390625 C 93.035156 -9.148438 87.179688 -5.054688 79.953125 -2.109375 C 72.722656 0.828125 64.5 2.296875 55.28125 2.296875 Z M 54.703125 -82.15625 C 48.941406 -82.15625 44.429688 -80.265625 41.171875 -76.484375 C 37.910156 -72.710938 36.28125 -67.691406 36.28125 -61.421875 L 36.28125 -59.890625 L 71.59375 -59.890625 L 71.59375 -61.609375 C 71.59375 -67.753906 70.21875 -72.710938 67.46875 -76.484375 C 64.71875 -80.265625 60.460938 -82.15625 54.703125 -82.15625 Z M 54.703125 -82.15625 "/></g></g></g><g fill="#1cd4f0" fill-opacity="1"><g transform="translate(405.547756, 187.593066)"><g><path d="M 70.640625 -108.0625 L 70.640625 0 L 41.46875 0 L 41.46875 -108.0625 L 5.1875 -108.0625 L 5.1875 -133.984375 L 106.921875 -133.984375 L 106.921875 -108.0625 Z M 70.640625 -108.0625 "/></g></g></g><g fill="#1cd4f0" fill-opacity="1"><g transform="translate(517.631596, 187.593066)"><g><path d="M 87.71875 0 C 82.601562 0 78.347656 -1.597656 74.953125 -4.796875 C 71.566406 -7.992188 69.425781 -12.28125 68.53125 -17.65625 L 67.375 -17.65625 C 65.84375 -11.132812 62.453125 -6.175781 57.203125 -2.78125 C 51.953125 0.601562 45.488281 2.296875 37.8125 2.296875 C 27.707031 2.296875 19.96875 -0.390625 14.59375 -5.765625 C 9.21875 -11.140625 6.53125 -18.238281 6.53125 -27.0625 C 6.53125 -37.6875 10.398438 -45.585938 18.140625 -50.765625 C 25.878906 -55.953125 36.40625 -58.546875 49.71875 -58.546875 L 65.640625 -58.546875 L 65.640625 -64.875 C 65.640625 -69.738281 64.359375 -73.609375 61.796875 -76.484375 C 59.242188 -79.367188 54.960938 -80.8125 48.953125 -80.8125 C 43.316406 -80.8125 38.832031 -79.59375 35.5 -77.15625 C 32.175781 -74.726562 29.425781 -71.976562 27.25 -68.90625 L 10.359375 -83.890625 C 14.460938 -89.898438 19.613281 -94.597656 25.8125 -97.984375 C 32.019531 -101.378906 40.4375 -103.078125 51.0625 -103.078125 C 65.394531 -103.078125 76.144531 -99.941406 83.3125 -93.671875 C 90.476562 -87.398438 94.0625 -78.25 94.0625 -66.21875 L 94.0625 -22.078125 L 103.46875 -22.078125 L 103.46875 0 Z M 48.375 -17.46875 C 53.101562 -17.46875 57.160156 -18.488281 60.546875 -20.53125 C 63.941406 -22.582031 65.640625 -25.910156 65.640625 -30.515625 L 65.640625 -42.421875 L 51.828125 -42.421875 C 40.691406 -42.421875 35.125 -38.644531 35.125 -31.09375 L 35.125 -28.21875 C 35.125 -24.507812 36.273438 -21.789062 38.578125 -20.0625 C 40.878906 -18.332031 44.144531 -17.46875 48.375 -17.46875 Z M 48.375 -17.46875 "/></g></g></g><g fill="#1cd4f0" fill-opacity="1"><g transform="translate(626.836468, 187.593066)"><g><path d="M 41.46875 0 C 31.738281 0 24.601562 -2.363281 20.0625 -7.09375 C 15.519531 -11.832031 13.25 -18.679688 13.25 -27.640625 L 13.25 -142.046875 L 41.65625 -142.046875 L 41.65625 -22.078125 L 54.328125 -22.078125 L 54.328125 0 Z M 41.46875 0 "/></g></g></g><g fill="#1cd4f0" fill-opacity="1"><g transform="translate(684.98952, 187.593066)"><g><path d="M 13.25 -142.046875 L 41.65625 -142.046875 L 41.65625 -58.15625 L 42.8125 -58.15625 L 55.28125 -76.78125 L 75.4375 -100.78125 L 106.921875 -100.78125 L 73.328125 -62.1875 L 110.75 0 L 76.96875 0 L 54.328125 -42.609375 L 41.65625 -28.40625 L 41.65625 0 L 13.25 0 Z M 13.25 -142.046875 "/></g></g></g></g></g></g></g></g></svg>