<svg xmlns="http://www.w3.org/2000/svg" xmlns:xlink="http://www.w3.org/1999/xlink" width="1920" zoomAndPan="magnify" viewBox="0 0 1440 809.999993" height="1080" preserveAspectRatio="xMidYMid meet" version="1.0"><defs><g/></defs><rect x="-144" width="1728" fill="#ffffff" y="-80.999999" height="971.999992" fill-opacity="1"/><rect x="-144" width="1728" fill="#050606" y="-80.999999" height="971.999992" fill-opacity="1"/><g fill="#fbc751" fill-opacity="1"><g transform="translate(300.832389, 376.500001)"><g><path d="M 43.4375 -39.4375 C 43.4375 -34.800781 41.847656 -30.945312 38.671875 -27.875 C 35.503906 -24.8125 30.664062 -23.28125 24.15625 -23.28125 L 13.4375 -23.28125 L 13.4375 0 L 6.15625 0 L 6.15625 -55.765625 L 24.15625 -55.765625 C 30.445312 -55.765625 35.234375 -54.242188 38.515625 -51.203125 C 41.796875 -48.160156 43.4375 -44.238281 43.4375 -39.4375 Z M 24.15625 -29.28125 C 28.207031 -29.28125 31.191406 -30.160156 33.109375 -31.921875 C 35.035156 -33.679688 36 -36.1875 36 -39.4375 C 36 -46.320312 32.050781 -49.765625 24.15625 -49.765625 L 13.4375 -49.765625 L 13.4375 -29.28125 Z M 24.15625 -29.28125 "/></g></g></g><g fill="#fbc751" fill-opacity="1"><g transform="translate(347.147885, 376.500001)"><g><path d="M 3.4375 -22.078125 C 3.4375 -26.554688 4.34375 -30.488281 6.15625 -33.875 C 7.96875 -37.257812 10.460938 -39.882812 13.640625 -41.75 C 16.816406 -43.625 20.347656 -44.5625 24.234375 -44.5625 C 28.078125 -44.5625 31.410156 -43.734375 34.234375 -42.078125 C 37.066406 -40.421875 39.175781 -38.34375 40.5625 -35.84375 L 40.5625 -43.84375 L 47.921875 -43.84375 L 47.921875 0 L 40.5625 0 L 40.5625 -8.15625 C 39.125 -5.59375 36.976562 -3.472656 34.125 -1.796875 C 31.269531 -0.117188 27.945312 0.71875 24.15625 0.71875 C 20.257812 0.71875 16.738281 -0.238281 13.59375 -2.15625 C 10.445312 -4.082031 7.96875 -6.773438 6.15625 -10.234375 C 4.34375 -13.703125 3.4375 -17.648438 3.4375 -22.078125 Z M 40.5625 -22 C 40.5625 -25.300781 39.894531 -28.175781 38.5625 -30.625 C 37.226562 -33.082031 35.425781 -34.960938 33.15625 -36.265625 C 30.894531 -37.578125 28.40625 -38.234375 25.6875 -38.234375 C 22.957031 -38.234375 20.472656 -37.59375 18.234375 -36.3125 C 15.992188 -35.039062 14.207031 -33.175781 12.875 -30.71875 C 11.539062 -28.269531 10.875 -25.390625 10.875 -22.078125 C 10.875 -18.722656 11.539062 -15.800781 12.875 -13.3125 C 14.207031 -10.832031 15.992188 -8.941406 18.234375 -7.640625 C 20.472656 -6.335938 22.957031 -5.6875 25.6875 -5.6875 C 28.40625 -5.6875 30.894531 -6.335938 33.15625 -7.640625 C 35.425781 -8.941406 37.226562 -10.832031 38.5625 -13.3125 C 39.894531 -15.800781 40.5625 -18.695312 40.5625 -22 Z M 40.5625 -22 "/></g></g></g><g fill="#fbc751" fill-opacity="1"><g transform="translate(401.222635, 376.500001)"><g><path d="M 13.4375 -36.71875 C 14.71875 -39.226562 16.546875 -41.175781 18.921875 -42.5625 C 21.296875 -43.945312 24.1875 -44.640625 27.59375 -44.640625 L 27.59375 -37.125 L 25.6875 -37.125 C 17.519531 -37.125 13.4375 -32.695312 13.4375 -23.84375 L 13.4375 0 L 6.15625 0 L 6.15625 -43.84375 L 13.4375 -43.84375 Z M 13.4375 -36.71875 "/></g></g></g><g fill="#fbc751" fill-opacity="1"><g transform="translate(431.059738, 376.500001)"><g><path d="M 15.046875 -37.84375 L 15.046875 -12 C 15.046875 -9.863281 15.5 -8.351562 16.40625 -7.46875 C 17.3125 -6.59375 18.882812 -6.15625 21.125 -6.15625 L 26.484375 -6.15625 L 26.484375 0 L 19.921875 0 C 15.867188 0 12.828125 -0.929688 10.796875 -2.796875 C 8.773438 -4.660156 7.765625 -7.726562 7.765625 -12 L 7.765625 -37.84375 L 2.078125 -37.84375 L 2.078125 -43.84375 L 7.765625 -43.84375 L 7.765625 -54.875 L 15.046875 -54.875 L 15.046875 -43.84375 L 26.484375 -43.84375 L 26.484375 -37.84375 Z M 15.046875 -37.84375 "/></g></g></g><g fill="#fbc751" fill-opacity="1"><g transform="translate(460.176905, 376.500001)"><g/></g></g><g fill="#fbc751" fill-opacity="1"><g transform="translate(481.534829, 376.500001)"><g><path d="M 13.4375 -55.765625 L 13.4375 0 L 6.15625 0 L 6.15625 -55.765625 Z M 13.4375 -55.765625 "/></g></g></g><g fill="#fbc751" fill-opacity="1"><g transform="translate(501.212933, 376.500001)"><g><path d="M 13.4375 -55.765625 L 13.4375 0 L 6.15625 0 L 6.15625 -55.765625 Z M 13.4375 -55.765625 "/></g></g></g><g fill="#fbc751" fill-opacity="1"><g transform="translate(520.891002, 376.500001)"><g><path d="M 8.484375 0.484375 C 7.097656 0.484375 5.921875 0.00390625 4.953125 -0.953125 C 3.992188 -1.921875 3.515625 -3.097656 3.515625 -4.484375 C 3.515625 -5.867188 3.992188 -7.039062 4.953125 -8 C 5.921875 -8.957031 7.097656 -9.4375 8.484375 -9.4375 C 9.816406 -9.4375 10.945312 -8.957031 11.875 -8 C 12.8125 -7.039062 13.28125 -5.867188 13.28125 -4.484375 C 13.28125 -3.097656 12.8125 -1.921875 11.875 -0.953125 C 10.945312 0.00390625 9.816406 0.484375 8.484375 0.484375 Z M 8.484375 -33.75 C 7.097656 -33.75 5.921875 -34.226562 4.953125 -35.1875 C 3.992188 -36.15625 3.515625 -37.332031 3.515625 -38.71875 C 3.515625 -40.101562 3.992188 -41.273438 4.953125 -42.234375 C 5.921875 -43.191406 7.097656 -43.671875 8.484375 -43.671875 C 9.816406 -43.671875 10.945312 -43.191406 11.875 -42.234375 C 12.8125 -41.273438 13.28125 -40.101562 13.28125 -38.71875 C 13.28125 -37.332031 12.8125 -36.15625 11.875 -35.1875 C 10.945312 -34.226562 9.816406 -33.75 8.484375 -33.75 Z M 8.484375 -33.75 "/></g></g></g><g fill="#fbc751" fill-opacity="1"><g transform="translate(537.929355, 376.500001)"><g/></g></g><g fill="#fbc751" fill-opacity="1"><g transform="translate(559.287279, 376.500001)"><g><path d="M 39.125 -12.40625 L 14.796875 -12.40625 L 10.3125 0 L 2.640625 0 L 22.796875 -55.4375 L 31.203125 -55.4375 L 51.28125 0 L 43.59375 0 Z M 37.046875 -18.3125 L 26.953125 -46.484375 L 16.875 -18.3125 Z M 37.046875 -18.3125 "/></g></g></g><g fill="#fbc751" fill-opacity="1"><g transform="translate(613.202041, 376.500001)"><g><path d="M 27.515625 -44.640625 C 32.847656 -44.640625 37.164062 -43.023438 40.46875 -39.796875 C 43.78125 -36.566406 45.4375 -31.914062 45.4375 -25.84375 L 45.4375 0 L 38.234375 0 L 38.234375 -24.796875 C 38.234375 -29.171875 37.140625 -32.515625 34.953125 -34.828125 C 32.773438 -37.148438 29.789062 -38.3125 26 -38.3125 C 22.15625 -38.3125 19.097656 -37.113281 16.828125 -34.71875 C 14.566406 -32.320312 13.4375 -28.828125 13.4375 -24.234375 L 13.4375 0 L 6.15625 0 L 6.15625 -43.84375 L 13.4375 -43.84375 L 13.4375 -37.59375 C 14.875 -39.832031 16.832031 -41.566406 19.3125 -42.796875 C 21.800781 -44.023438 24.535156 -44.640625 27.515625 -44.640625 Z M 27.515625 -44.640625 "/></g></g></g><g fill="#fbc751" fill-opacity="1"><g transform="translate(664.397068, 376.500001)"><g/></g></g><g fill="#fbc751" fill-opacity="1"><g transform="translate(685.754993, 376.500001)"><g><path d="M 46.15625 -23.59375 C 46.15625 -22.207031 46.078125 -20.742188 45.921875 -19.203125 L 10.875 -19.203125 C 11.144531 -14.878906 12.625 -11.503906 15.3125 -9.078125 C 18.007812 -6.648438 21.28125 -5.4375 25.125 -5.4375 C 28.269531 -5.4375 30.894531 -6.171875 33 -7.640625 C 35.101562 -9.109375 36.582031 -11.066406 37.4375 -13.515625 L 45.28125 -13.515625 C 44.101562 -9.304688 41.753906 -5.878906 38.234375 -3.234375 C 34.710938 -0.597656 30.34375 0.71875 25.125 0.71875 C 20.957031 0.71875 17.234375 -0.210938 13.953125 -2.078125 C 10.679688 -3.941406 8.109375 -6.59375 6.234375 -10.03125 C 4.367188 -13.476562 3.4375 -17.46875 3.4375 -22 C 3.4375 -26.53125 4.34375 -30.503906 6.15625 -33.921875 C 7.96875 -37.335938 10.515625 -39.960938 13.796875 -41.796875 C 17.078125 -43.640625 20.851562 -44.5625 25.125 -44.5625 C 29.28125 -44.5625 32.957031 -43.65625 36.15625 -41.84375 C 39.351562 -40.03125 41.816406 -37.535156 43.546875 -34.359375 C 45.285156 -31.179688 46.15625 -27.59375 46.15625 -23.59375 Z M 38.640625 -25.125 C 38.640625 -27.894531 38.023438 -30.28125 36.796875 -32.28125 C 35.566406 -34.28125 33.898438 -35.800781 31.796875 -36.84375 C 29.691406 -37.882812 27.359375 -38.40625 24.796875 -38.40625 C 21.117188 -38.40625 17.984375 -37.226562 15.390625 -34.875 C 12.804688 -32.53125 11.328125 -29.28125 10.953125 -25.125 Z M 38.640625 -25.125 "/></g></g></g><g fill="#fbc751" fill-opacity="1"><g transform="translate(735.350159, 376.500001)"><g><path d="M 29.046875 0 L 18.640625 -16.3125 L 8.640625 0 L 1.046875 0 L 15.203125 -21.765625 L 1.046875 -43.84375 L 9.28125 -43.84375 L 19.6875 -27.59375 L 29.59375 -43.84375 L 37.203125 -43.84375 L 23.125 -22.15625 L 37.28125 0 Z M 29.046875 0 "/></g></g></g><g fill="#fbc751" fill-opacity="1"><g transform="translate(773.666442, 376.500001)"><g><path d="M 13.4375 -35.765625 C 14.875 -38.265625 17.019531 -40.351562 19.875 -42.03125 C 22.726562 -43.71875 26.050781 -44.5625 29.84375 -44.5625 C 33.738281 -44.5625 37.269531 -43.625 40.4375 -41.75 C 43.613281 -39.882812 46.109375 -37.257812 47.921875 -33.875 C 49.734375 -30.488281 50.640625 -26.554688 50.640625 -22.078125 C 50.640625 -17.648438 49.734375 -13.703125 47.921875 -10.234375 C 46.109375 -6.773438 43.613281 -4.082031 40.4375 -2.15625 C 37.269531 -0.238281 33.738281 0.71875 29.84375 0.71875 C 26.101562 0.71875 22.804688 -0.117188 19.953125 -1.796875 C 17.109375 -3.472656 14.9375 -5.566406 13.4375 -8.078125 L 13.4375 20.796875 L 6.15625 20.796875 L 6.15625 -43.84375 L 13.4375 -43.84375 Z M 43.203125 -22.078125 C 43.203125 -25.390625 42.535156 -28.269531 41.203125 -30.71875 C 39.867188 -33.175781 38.066406 -35.039062 35.796875 -36.3125 C 33.535156 -37.59375 31.039062 -38.234375 28.3125 -38.234375 C 25.644531 -38.234375 23.175781 -37.578125 20.90625 -36.265625 C 18.644531 -34.960938 16.832031 -33.070312 15.46875 -30.59375 C 14.113281 -28.113281 13.4375 -25.25 13.4375 -22 C 13.4375 -18.695312 14.113281 -15.800781 15.46875 -13.3125 C 16.832031 -10.832031 18.644531 -8.941406 20.90625 -7.640625 C 23.175781 -6.335938 25.644531 -5.6875 28.3125 -5.6875 C 31.039062 -5.6875 33.535156 -6.335938 35.796875 -7.640625 C 38.066406 -8.941406 39.867188 -10.832031 41.203125 -13.3125 C 42.535156 -15.800781 43.203125 -18.722656 43.203125 -22.078125 Z M 43.203125 -22.078125 "/></g></g></g><g fill="#fbc751" fill-opacity="1"><g transform="translate(827.741191, 376.500001)"><g><path d="M 46.15625 -23.59375 C 46.15625 -22.207031 46.078125 -20.742188 45.921875 -19.203125 L 10.875 -19.203125 C 11.144531 -14.878906 12.625 -11.503906 15.3125 -9.078125 C 18.007812 -6.648438 21.28125 -5.4375 25.125 -5.4375 C 28.269531 -5.4375 30.894531 -6.171875 33 -7.640625 C 35.101562 -9.109375 36.582031 -11.066406 37.4375 -13.515625 L 45.28125 -13.515625 C 44.101562 -9.304688 41.753906 -5.878906 38.234375 -3.234375 C 34.710938 -0.597656 30.34375 0.71875 25.125 0.71875 C 20.957031 0.71875 17.234375 -0.210938 13.953125 -2.078125 C 10.679688 -3.941406 8.109375 -6.59375 6.234375 -10.03125 C 4.367188 -13.476562 3.4375 -17.46875 3.4375 -22 C 3.4375 -26.53125 4.34375 -30.503906 6.15625 -33.921875 C 7.96875 -37.335938 10.515625 -39.960938 13.796875 -41.796875 C 17.078125 -43.640625 20.851562 -44.5625 25.125 -44.5625 C 29.28125 -44.5625 32.957031 -43.65625 36.15625 -41.84375 C 39.351562 -40.03125 41.816406 -37.535156 43.546875 -34.359375 C 45.285156 -31.179688 46.15625 -27.59375 46.15625 -23.59375 Z M 38.640625 -25.125 C 38.640625 -27.894531 38.023438 -30.28125 36.796875 -32.28125 C 35.566406 -34.28125 33.898438 -35.800781 31.796875 -36.84375 C 29.691406 -37.882812 27.359375 -38.40625 24.796875 -38.40625 C 21.117188 -38.40625 17.984375 -37.226562 15.390625 -34.875 C 12.804688 -32.53125 11.328125 -29.28125 10.953125 -25.125 Z M 38.640625 -25.125 "/></g></g></g><g fill="#fbc751" fill-opacity="1"><g transform="translate(877.336358, 376.500001)"><g><path d="M 13.4375 -36.71875 C 14.71875 -39.226562 16.546875 -41.175781 18.921875 -42.5625 C 21.296875 -43.945312 24.1875 -44.640625 27.59375 -44.640625 L 27.59375 -37.125 L 25.6875 -37.125 C 17.519531 -37.125 13.4375 -32.695312 13.4375 -23.84375 L 13.4375 0 L 6.15625 0 L 6.15625 -43.84375 L 13.4375 -43.84375 Z M 13.4375 -36.71875 "/></g></g></g><g fill="#fbc751" fill-opacity="1"><g transform="translate(907.173484, 376.500001)"><g><path d="M 9.921875 -50.953125 C 8.535156 -50.953125 7.359375 -51.429688 6.390625 -52.390625 C 5.429688 -53.359375 4.953125 -54.535156 4.953125 -55.921875 C 4.953125 -57.304688 5.429688 -58.476562 6.390625 -59.4375 C 7.359375 -60.394531 8.535156 -60.875 9.921875 -60.875 C 11.253906 -60.875 12.382812 -60.394531 13.3125 -59.4375 C 14.25 -58.476562 14.71875 -57.304688 14.71875 -55.921875 C 14.71875 -54.535156 14.25 -53.359375 13.3125 -52.390625 C 12.382812 -51.429688 11.253906 -50.953125 9.921875 -50.953125 Z M 13.4375 -43.84375 L 13.4375 0 L 6.15625 0 L 6.15625 -43.84375 Z M 13.4375 -43.84375 "/></g></g></g><g fill="#fbc751" fill-opacity="1"><g transform="translate(926.851553, 376.500001)"><g><path d="M 58.875 -44.640625 C 62.289062 -44.640625 65.332031 -43.929688 68 -42.515625 C 70.664062 -41.109375 72.769531 -38.988281 74.3125 -36.15625 C 75.863281 -33.332031 76.640625 -29.894531 76.640625 -25.84375 L 76.640625 0 L 69.4375 0 L 69.4375 -24.796875 C 69.4375 -29.171875 68.351562 -32.515625 66.1875 -34.828125 C 64.03125 -37.148438 61.113281 -38.3125 57.4375 -38.3125 C 53.65625 -38.3125 50.644531 -37.097656 48.40625 -34.671875 C 46.164062 -32.253906 45.046875 -28.75 45.046875 -24.15625 L 45.046875 0 L 37.84375 0 L 37.84375 -24.796875 C 37.84375 -29.171875 36.757812 -32.515625 34.59375 -34.828125 C 32.4375 -37.148438 29.519531 -38.3125 25.84375 -38.3125 C 22.050781 -38.3125 19.035156 -37.097656 16.796875 -34.671875 C 14.554688 -32.253906 13.4375 -28.75 13.4375 -24.15625 L 13.4375 0 L 6.15625 0 L 6.15625 -43.84375 L 13.4375 -43.84375 L 13.4375 -37.515625 C 14.875 -39.804688 16.804688 -41.566406 19.234375 -42.796875 C 21.660156 -44.023438 24.34375 -44.640625 27.28125 -44.640625 C 30.957031 -44.640625 34.207031 -43.8125 37.03125 -42.15625 C 39.863281 -40.507812 41.972656 -38.082031 43.359375 -34.875 C 44.585938 -37.96875 46.613281 -40.367188 49.4375 -42.078125 C 52.269531 -43.785156 55.414062 -44.640625 58.875 -44.640625 Z M 58.875 -44.640625 "/></g></g></g><g fill="#fbc751" fill-opacity="1"><g transform="translate(1009.243563, 376.500001)"><g><path d="M 46.15625 -23.59375 C 46.15625 -22.207031 46.078125 -20.742188 45.921875 -19.203125 L 10.875 -19.203125 C 11.144531 -14.878906 12.625 -11.503906 15.3125 -9.078125 C 18.007812 -6.648438 21.28125 -5.4375 25.125 -5.4375 C 28.269531 -5.4375 30.894531 -6.171875 33 -7.640625 C 35.101562 -9.109375 36.582031 -11.066406 37.4375 -13.515625 L 45.28125 -13.515625 C 44.101562 -9.304688 41.753906 -5.878906 38.234375 -3.234375 C 34.710938 -0.597656 30.34375 0.71875 25.125 0.71875 C 20.957031 0.71875 17.234375 -0.210938 13.953125 -2.078125 C 10.679688 -3.941406 8.109375 -6.59375 6.234375 -10.03125 C 4.367188 -13.476562 3.4375 -17.46875 3.4375 -22 C 3.4375 -26.53125 4.34375 -30.503906 6.15625 -33.921875 C 7.96875 -37.335938 10.515625 -39.960938 13.796875 -41.796875 C 17.078125 -43.640625 20.851562 -44.5625 25.125 -44.5625 C 29.28125 -44.5625 32.957031 -43.65625 36.15625 -41.84375 C 39.351562 -40.03125 41.816406 -37.535156 43.546875 -34.359375 C 45.285156 -31.179688 46.15625 -27.59375 46.15625 -23.59375 Z M 38.640625 -25.125 C 38.640625 -27.894531 38.023438 -30.28125 36.796875 -32.28125 C 35.566406 -34.28125 33.898438 -35.800781 31.796875 -36.84375 C 29.691406 -37.882812 27.359375 -38.40625 24.796875 -38.40625 C 21.117188 -38.40625 17.984375 -37.226562 15.390625 -34.875 C 12.804688 -32.53125 11.328125 -29.28125 10.953125 -25.125 Z M 38.640625 -25.125 "/></g></g></g><g fill="#fbc751" fill-opacity="1"><g transform="translate(1058.838729, 376.500001)"><g><path d="M 27.515625 -44.640625 C 32.847656 -44.640625 37.164062 -43.023438 40.46875 -39.796875 C 43.78125 -36.566406 45.4375 -31.914062 45.4375 -25.84375 L 45.4375 0 L 38.234375 0 L 38.234375 -24.796875 C 38.234375 -29.171875 37.140625 -32.515625 34.953125 -34.828125 C 32.773438 -37.148438 29.789062 -38.3125 26 -38.3125 C 22.15625 -38.3125 19.097656 -37.113281 16.828125 -34.71875 C 14.566406 -32.320312 13.4375 -28.828125 13.4375 -24.234375 L 13.4375 0 L 6.15625 0 L 6.15625 -43.84375 L 13.4375 -43.84375 L 13.4375 -37.59375 C 14.875 -39.832031 16.832031 -41.566406 19.3125 -42.796875 C 21.800781 -44.023438 24.535156 -44.640625 27.515625 -44.640625 Z M 27.515625 -44.640625 "/></g></g></g><g fill="#fbc751" fill-opacity="1"><g transform="translate(1110.033826, 376.500001)"><g><path d="M 15.046875 -37.84375 L 15.046875 -12 C 15.046875 -9.863281 15.5 -8.351562 16.40625 -7.46875 C 17.3125 -6.59375 18.882812 -6.15625 21.125 -6.15625 L 26.484375 -6.15625 L 26.484375 0 L 19.921875 0 C 15.867188 0 12.828125 -0.929688 10.796875 -2.796875 C 8.773438 -4.660156 7.765625 -7.726562 7.765625 -12 L 7.765625 -37.84375 L 2.078125 -37.84375 L 2.078125 -43.84375 L 7.765625 -43.84375 L 7.765625 -54.875 L 15.046875 -54.875 L 15.046875 -43.84375 L 26.484375 -43.84375 L 26.484375 -37.84375 Z M 15.046875 -37.84375 "/></g></g></g><g fill="#fbc751" fill-opacity="1"><g transform="translate(409.734728, 488.249995)"><g><path d="M 64.5625 -43.84375 L 50.875 0 L 43.359375 0 L 32.796875 -34.796875 L 22.234375 0 L 14.71875 0 L 0.953125 -43.84375 L 8.40625 -43.84375 L 18.484375 -7.046875 L 29.359375 -43.84375 L 36.796875 -43.84375 L 47.4375 -6.953125 L 57.359375 -43.84375 Z M 64.5625 -43.84375 "/></g></g></g><g fill="#fbc751" fill-opacity="1"><g transform="translate(475.328356, 488.249995)"><g><path d="M 9.921875 -50.953125 C 8.535156 -50.953125 7.359375 -51.429688 6.390625 -52.390625 C 5.429688 -53.359375 4.953125 -54.535156 4.953125 -55.921875 C 4.953125 -57.304688 5.429688 -58.476562 6.390625 -59.4375 C 7.359375 -60.394531 8.535156 -60.875 9.921875 -60.875 C 11.253906 -60.875 12.382812 -60.394531 13.3125 -59.4375 C 14.25 -58.476562 14.71875 -57.304688 14.71875 -55.921875 C 14.71875 -54.535156 14.25 -53.359375 13.3125 -52.390625 C 12.382812 -51.429688 11.253906 -50.953125 9.921875 -50.953125 Z M 13.4375 -43.84375 L 13.4375 0 L 6.15625 0 L 6.15625 -43.84375 Z M 13.4375 -43.84375 "/></g></g></g><g fill="#fbc751" fill-opacity="1"><g transform="translate(495.006448, 488.249995)"><g><path d="M 15.046875 -37.84375 L 15.046875 -12 C 15.046875 -9.863281 15.5 -8.351562 16.40625 -7.46875 C 17.3125 -6.59375 18.882812 -6.15625 21.125 -6.15625 L 26.484375 -6.15625 L 26.484375 0 L 19.921875 0 C 15.867188 0 12.828125 -0.929688 10.796875 -2.796875 C 8.773438 -4.660156 7.765625 -7.726562 7.765625 -12 L 7.765625 -37.84375 L 2.078125 -37.84375 L 2.078125 -43.84375 L 7.765625 -43.84375 L 7.765625 -54.875 L 15.046875 -54.875 L 15.046875 -43.84375 L 26.484375 -43.84375 L 26.484375 -37.84375 Z M 15.046875 -37.84375 "/></g></g></g><g fill="#fbc751" fill-opacity="1"><g transform="translate(524.123615, 488.249995)"><g><path d="M 27.921875 -44.640625 C 31.222656 -44.640625 34.207031 -43.929688 36.875 -42.515625 C 39.539062 -41.109375 41.632812 -38.988281 43.15625 -36.15625 C 44.675781 -33.332031 45.4375 -29.894531 45.4375 -25.84375 L 45.4375 0 L 38.234375 0 L 38.234375 -24.796875 C 38.234375 -29.171875 37.140625 -32.515625 34.953125 -34.828125 C 32.773438 -37.148438 29.789062 -38.3125 26 -38.3125 C 22.15625 -38.3125 19.097656 -37.113281 16.828125 -34.71875 C 14.566406 -32.320312 13.4375 -28.828125 13.4375 -24.234375 L 13.4375 0 L 6.15625 0 L 6.15625 -59.203125 L 13.4375 -59.203125 L 13.4375 -37.59375 C 14.875 -39.832031 16.859375 -41.566406 19.390625 -42.796875 C 21.929688 -44.023438 24.773438 -44.640625 27.921875 -44.640625 Z M 27.921875 -44.640625 "/></g></g></g><g fill="#fbc751" fill-opacity="1"><g transform="translate(575.318642, 488.249995)"><g/></g></g><g fill="#fbc751" fill-opacity="1"><g transform="translate(596.676567, 488.249995)"><g><path d="M 43.4375 -39.4375 C 43.4375 -34.800781 41.847656 -30.945312 38.671875 -27.875 C 35.503906 -24.8125 30.664062 -23.28125 24.15625 -23.28125 L 13.4375 -23.28125 L 13.4375 0 L 6.15625 0 L 6.15625 -55.765625 L 24.15625 -55.765625 C 30.445312 -55.765625 35.234375 -54.242188 38.515625 -51.203125 C 41.796875 -48.160156 43.4375 -44.238281 43.4375 -39.4375 Z M 24.15625 -29.28125 C 28.207031 -29.28125 31.191406 -30.160156 33.109375 -31.921875 C 35.035156 -33.679688 36 -36.1875 36 -39.4375 C 36 -46.320312 32.050781 -49.765625 24.15625 -49.765625 L 13.4375 -49.765625 L 13.4375 -29.28125 Z M 24.15625 -29.28125 "/></g></g></g><g fill="#fbc751" fill-opacity="1"><g transform="translate(642.992063, 488.249995)"><g><path d="M 3.4375 -22.078125 C 3.4375 -26.554688 4.34375 -30.488281 6.15625 -33.875 C 7.96875 -37.257812 10.460938 -39.882812 13.640625 -41.75 C 16.816406 -43.625 20.347656 -44.5625 24.234375 -44.5625 C 28.078125 -44.5625 31.410156 -43.734375 34.234375 -42.078125 C 37.066406 -40.421875 39.175781 -38.34375 40.5625 -35.84375 L 40.5625 -43.84375 L 47.921875 -43.84375 L 47.921875 0 L 40.5625 0 L 40.5625 -8.15625 C 39.125 -5.59375 36.976562 -3.472656 34.125 -1.796875 C 31.269531 -0.117188 27.945312 0.71875 24.15625 0.71875 C 20.257812 0.71875 16.738281 -0.238281 13.59375 -2.15625 C 10.445312 -4.082031 7.96875 -6.773438 6.15625 -10.234375 C 4.34375 -13.703125 3.4375 -17.648438 3.4375 -22.078125 Z M 40.5625 -22 C 40.5625 -25.300781 39.894531 -28.175781 38.5625 -30.625 C 37.226562 -33.082031 35.425781 -34.960938 33.15625 -36.265625 C 30.894531 -37.578125 28.40625 -38.234375 25.6875 -38.234375 C 22.957031 -38.234375 20.472656 -37.59375 18.234375 -36.3125 C 15.992188 -35.039062 14.207031 -33.175781 12.875 -30.71875 C 11.539062 -28.269531 10.875 -25.390625 10.875 -22.078125 C 10.875 -18.722656 11.539062 -15.800781 12.875 -13.3125 C 14.207031 -10.832031 15.992188 -8.941406 18.234375 -7.640625 C 20.472656 -6.335938 22.957031 -5.6875 25.6875 -5.6875 C 28.40625 -5.6875 30.894531 -6.335938 33.15625 -7.640625 C 35.425781 -8.941406 37.226562 -10.832031 38.5625 -13.3125 C 39.894531 -15.800781 40.5625 -18.695312 40.5625 -22 Z M 40.5625 -22 "/></g></g></g><g fill="#fbc751" fill-opacity="1"><g transform="translate(697.066813, 488.249995)"><g><path d="M 43.921875 -43.84375 L 17.515625 20.640625 L 10 20.640625 L 18.640625 -0.484375 L 0.953125 -43.84375 L 9.046875 -43.84375 L 22.796875 -8.3125 L 36.40625 -43.84375 Z M 43.921875 -43.84375 "/></g></g></g><g fill="#fbc751" fill-opacity="1"><g transform="translate(742.102447, 488.249995)"><g/></g></g><g fill="#fbc751" fill-opacity="1"><g transform="translate(763.460372, 488.249995)"><g><path d="M 15.046875 -37.84375 L 15.046875 -12 C 15.046875 -9.863281 15.5 -8.351562 16.40625 -7.46875 C 17.3125 -6.59375 18.882812 -6.15625 21.125 -6.15625 L 26.484375 -6.15625 L 26.484375 0 L 19.921875 0 C 15.867188 0 12.828125 -0.929688 10.796875 -2.796875 C 8.773438 -4.660156 7.765625 -7.726562 7.765625 -12 L 7.765625 -37.84375 L 2.078125 -37.84375 L 2.078125 -43.84375 L 7.765625 -43.84375 L 7.765625 -54.875 L 15.046875 -54.875 L 15.046875 -43.84375 L 26.484375 -43.84375 L 26.484375 -37.84375 Z M 15.046875 -37.84375 "/></g></g></g><g fill="#fbc751" fill-opacity="1"><g transform="translate(792.577527, 488.249995)"><g><path d="M 25.28125 0.71875 C 21.175781 0.71875 17.457031 -0.210938 14.125 -2.078125 C 10.789062 -3.941406 8.175781 -6.59375 6.28125 -10.03125 C 4.382812 -13.476562 3.4375 -17.46875 3.4375 -22 C 3.4375 -26.476562 4.410156 -30.4375 6.359375 -33.875 C 8.304688 -37.320312 10.957031 -39.960938 14.3125 -41.796875 C 17.675781 -43.640625 21.4375 -44.5625 25.59375 -44.5625 C 29.757812 -44.5625 33.519531 -43.640625 36.875 -41.796875 C 40.238281 -39.960938 42.894531 -37.335938 44.84375 -33.921875 C 46.789062 -30.503906 47.765625 -26.53125 47.765625 -22 C 47.765625 -17.46875 46.765625 -13.476562 44.765625 -10.03125 C 42.765625 -6.59375 40.054688 -3.941406 36.640625 -2.078125 C 33.222656 -0.210938 29.4375 0.71875 25.28125 0.71875 Z M 25.28125 -5.6875 C 27.894531 -5.6875 30.347656 -6.296875 32.640625 -7.515625 C 34.929688 -8.742188 36.78125 -10.582031 38.1875 -13.03125 C 39.601562 -15.488281 40.3125 -18.476562 40.3125 -22 C 40.3125 -25.519531 39.617188 -28.503906 38.234375 -30.953125 C 36.847656 -33.410156 35.035156 -35.238281 32.796875 -36.4375 C 30.554688 -37.632812 28.128906 -38.234375 25.515625 -38.234375 C 22.847656 -38.234375 20.40625 -37.632812 18.1875 -36.4375 C 15.976562 -35.238281 14.207031 -33.410156 12.875 -30.953125 C 11.539062 -28.503906 10.875 -25.519531 10.875 -22 C 10.875 -18.425781 11.523438 -15.410156 12.828125 -12.953125 C 14.140625 -10.503906 15.890625 -8.679688 18.078125 -7.484375 C 20.265625 -6.285156 22.664062 -5.6875 25.28125 -5.6875 Z M 25.28125 -5.6875 "/></g></g></g><g fill="#fbc751" fill-opacity="1"><g transform="translate(843.772578, 488.249995)"><g/></g></g><g fill="#fbc751" fill-opacity="1"><g transform="translate(865.130457, 488.249995)"><g><path d="M 43.4375 -39.4375 C 43.4375 -34.800781 41.847656 -30.945312 38.671875 -27.875 C 35.503906 -24.8125 30.664062 -23.28125 24.15625 -23.28125 L 13.4375 -23.28125 L 13.4375 0 L 6.15625 0 L 6.15625 -55.765625 L 24.15625 -55.765625 C 30.445312 -55.765625 35.234375 -54.242188 38.515625 -51.203125 C 41.796875 -48.160156 43.4375 -44.238281 43.4375 -39.4375 Z M 24.15625 -29.28125 C 28.207031 -29.28125 31.191406 -30.160156 33.109375 -31.921875 C 35.035156 -33.679688 36 -36.1875 36 -39.4375 C 36 -46.320312 32.050781 -49.765625 24.15625 -49.765625 L 13.4375 -49.765625 L 13.4375 -29.28125 Z M 24.15625 -29.28125 "/></g></g></g><g fill="#fbc751" fill-opacity="1"><g transform="translate(911.445975, 488.249995)"><g><path d="M 13.4375 -59.203125 L 13.4375 0 L 6.15625 0 L 6.15625 -59.203125 Z M 13.4375 -59.203125 "/></g></g></g><g fill="#fbc751" fill-opacity="1"><g transform="translate(931.124045, 488.249995)"><g><path d="M 3.4375 -22.078125 C 3.4375 -26.554688 4.34375 -30.488281 6.15625 -33.875 C 7.96875 -37.257812 10.460938 -39.882812 13.640625 -41.75 C 16.816406 -43.625 20.347656 -44.5625 24.234375 -44.5625 C 28.078125 -44.5625 31.410156 -43.734375 34.234375 -42.078125 C 37.066406 -40.421875 39.175781 -38.34375 40.5625 -35.84375 L 40.5625 -43.84375 L 47.921875 -43.84375 L 47.921875 0 L 40.5625 0 L 40.5625 -8.15625 C 39.125 -5.59375 36.976562 -3.472656 34.125 -1.796875 C 31.269531 -0.117188 27.945312 0.71875 24.15625 0.71875 C 20.257812 0.71875 16.738281 -0.238281 13.59375 -2.15625 C 10.445312 -4.082031 7.96875 -6.773438 6.15625 -10.234375 C 4.34375 -13.703125 3.4375 -17.648438 3.4375 -22.078125 Z M 40.5625 -22 C 40.5625 -25.300781 39.894531 -28.175781 38.5625 -30.625 C 37.226562 -33.082031 35.425781 -34.960938 33.15625 -36.265625 C 30.894531 -37.578125 28.40625 -38.234375 25.6875 -38.234375 C 22.957031 -38.234375 20.472656 -37.59375 18.234375 -36.3125 C 15.992188 -35.039062 14.207031 -33.175781 12.875 -30.71875 C 11.539062 -28.269531 10.875 -25.390625 10.875 -22.078125 C 10.875 -18.722656 11.539062 -15.800781 12.875 -13.3125 C 14.207031 -10.832031 15.992188 -8.941406 18.234375 -7.640625 C 20.472656 -6.335938 22.957031 -5.6875 25.6875 -5.6875 C 28.40625 -5.6875 30.894531 -6.335938 33.15625 -7.640625 C 35.425781 -8.941406 37.226562 -10.832031 38.5625 -13.3125 C 39.894531 -15.800781 40.5625 -18.695312 40.5625 -22 Z M 40.5625 -22 "/></g></g></g><g fill="#fbc751" fill-opacity="1"><g transform="translate(985.19884, 488.249995)"><g><path d="M 43.921875 -43.84375 L 17.515625 20.640625 L 10 20.640625 L 18.640625 -0.484375 L 0.953125 -43.84375 L 9.046875 -43.84375 L 22.796875 -8.3125 L 36.40625 -43.84375 Z M 43.921875 -43.84375 "/></g></g></g></svg>